<?xml version="1.0" encoding="UTF-8"?>
<svg width="186" height="171" fill="none" version="1.1" xmlns="http://www.w3.org/2000/svg" xmlns:cc="http://creativecommons.org/ns#" xmlns:dc="http://purl.org/dc/elements/1.1/" xmlns:rdf="http://www.w3.org/1999/02/22-rdf-syntax-ns#">
 <metadata>
  <rdf:RDF>
   <cc:Work rdf:about="">
    <dc:format>image/svg+xml</dc:format>
    <dc:type rdf:resource="http://purl.org/dc/dcmitype/StillImage"/>
    <dc:title/>
   </cc:Work>
  </rdf:RDF>
 </metadata>
 <g transform="matrix(.32576 0 0 .32576 -9.4365 55.602)" fill="#fff" fill-rule="evenodd" stroke-width=".26458">
  <circle cx="234.04" cy="85.757" r="121.7"/>
  <circle cx="403.76" cy="82.36" r="121.7"/>
 </g>
 <g>
  <circle cx="92.995" cy="85.963" r="73.097" fill="#fff" stop-color="#000000" stroke="#cd00cd" stroke-linecap="round" stroke-linejoin="round" stroke-width="3.956"/>
  <path d="m94.416 154.86c-4.2907 0.0518-8.6853-2.4507-8.5982-9.5722-0.01138-10.281 0.19658-21.153 0.15953-31.474 0.26278-0.0111 1.0743-0.0144 2.3784-0.0144h11.538c1.3041 0 2.3435-2e-3 2.3435-2e-3l0.01 31.375c0.0518 5.1208-3.5405 9.6349-7.8312 9.6868z" fill="#cb6c34" stop-color="#000000" stroke="#9d5329" stroke-linejoin="round" stroke-width="2.3" style="font-variation-settings:normal"/>
  <path d="m93.724 29.774c-18.412-0.01164-36.599 14.104-36.599 31.44 0 0.43174 0.01065 0.86344 0.03118 1.2948v4.2187l19.277-1.6893c1.1861-0.87552 2.5522-1.6362 3.9805-1.9418 4.2626-0.91191 5.3419-0.63048 7.0954 0.06566 0.3886 0.15428 0.77941 0.44529 1.1524 0.80451l42.183-3.6963c-0.17581-15.771-17.589-30.016-36.243-30.485-0.29228-0.0077-0.58465-0.01126-0.87694-0.01149zm37.124 69.242-73.691 6.4575v8.028c0 5.066 4.7623 9.1445 10.678 9.1445h2.4686c-0.92761 0.94714-1.4362 3.448-1.4362 4.6842 0 2.9049 2.75 6.005 6.1421 6.0051 3.3922 3e-5 6.142-3.1001 6.1421-6.0051 0-1.2362-0.50828-3.737-1.4358-4.6842h28.708c0.67945 1.1083 0.62164 3.644 0.0275 4.5176-0.3787 0.53212-2.5317 2.8788-2.5318 4.8776 0 2.9799 2.7188 5.7682 6.0725 5.7682 0.85268 1e-5 1.6644-0.15607 2.4006-0.43792 2.1599-0.82677 3.672-3.1079 3.672-5.3303 0-1.8198-1.1956-3.935-2.1845-4.7292-1.2928-1.23-0.68332-3.5234 0.0854-4.666h4.2065c5.9155 0 10.678-4.0785 10.678-9.1445z" fill="#f0f" stop-color="#000000" style="font-variation-settings:normal"/>
  <path d="m130.85 99.016-73.692 6.4576v8.0281c0 5.066 4.7625 9.1445 10.678 9.1445h2.4686c-0.92761 0.94714-1.436 3.4479-1.436 4.6841 7.6e-5 2.9049 2.7498 6.005 6.1419 6.0051 3.3922 4e-5 6.1421-3.1001 6.1421-6.0051 0-1.2361-0.50835-3.7369-1.4359-4.6841h28.708c0.67944 1.1083 0.62147 3.644 0.0275 4.5176-0.37864 0.53213-2.5316 2.8787-2.5317 4.8775 0 2.98 2.7188 5.7682 6.0726 5.7682 0.8526 1e-5 1.6642-0.15611 2.4006-0.43798 2.1599-0.82678 3.672-3.1079 3.672-5.3303 0-1.8198-1.1956-3.935-2.1845-4.7292-1.2928-1.23-0.68333-3.5233 0.0854-4.6659h4.2065c5.9155 0 10.678-4.0785 10.678-9.1445z" fill="#f0f" stop-color="#000000" style="font-variation-settings:normal"/>
  <path d="m93.725 28.11c-0.04717 8.4e-5 -0.09363 0.0023-0.14029 6e-3 -9.5832 0.02945-19.014 3.6782-26.128 9.5937-7.1488 5.9444-11.996 14.255-11.996 23.504 0 0.43187 0.01141 0.86376 0.03118 1.2948v1.8292l-31.028 2.5336c-1.4286 0.11674-2.4922 1.3693-2.3757 2.798 0.1167 1.4289 1.3698 2.4926 2.7987 2.3757 0 0 133.74-11.063 133.31-10.886 1.4286-0.11664 2.4922-1.3692 2.3758-2.7978-0.10956-1.3443-1.2305-2.3807-2.5793-2.3848-0.073-8.5e-5 -0.14592 0.0031-0.21865 0.0089l-25.396 2.0737c-0.7995-7.6554-5.2741-14.722-11.663-20.048-6.9948-5.831-16.337-9.6446-26.075-9.8893-0.30552-0.0077-0.61189-0.01217-0.91802-0.01232zm0 3.3288c0.27837 1.67e-4 0.55711 0.0038 0.83616 0.01087 8.9171 0.22416 17.608 3.7674 24.028 9.1187 5.842 4.87 9.714 11.184 10.43 17.766l-70.197 5.732v-1.5573c-7.4e-5 -0.02617 0-0.05227 0-0.07842-0.01902-0.40544-0.02891-0.81116-0.02891-1.2164 0-8.0858 4.2475-15.5 10.795-20.945 6.5475-5.4444 15.358-8.836 24.138-8.8305zm-1.4354 7.3954c-1.0128-2.58e-4 -1.8339 0.63753-1.8335 1.4242v13.48c0 0.78635 0.82111 1.4237 1.8335 1.4234 1.0121-1.67e-4 1.8324-0.63736 1.8326-1.4234v-13.48c0-0.78635-0.82018-1.424-1.8326-1.4242zm21.124 4.5132c-0.0808-4.25e-4 -0.16174 0.0031-0.24199 0.01126-1.0043 0.09785-1.7164 0.80946-1.5906 1.5896 0 0 0.1097 0.68929 0.36623 1.4897 0.24322 0.7589 0.42877 1.6328 1.4529 2.4404 0.013 0.0175 0.0266 0.03789 0.038 0.06352 0.0594 0.13806 0.13314 0.38148 0.1803 0.66878 0.0943 0.57463 0.0835 1.3333-0.11403 2.002-0.19758 0.66867-0.5623 1.2212-1.0741 1.5763-0.51186 0.35508-1.1985 0.60993-2.5585 0.56308-1.8999-0.06542-2.6371-0.45298-3.0299-0.83981-0.39287-0.38682-0.56815-0.99598-0.48849-1.807 0.15922-1.622 1.3653-3.5716 1.6667-4.0457 0.69909-1.0995 0.72699-2.1219 0.72699-2.1219 0.0107-0.78612-0.80064-1.4303-1.8128-1.4389-1.0121-0.0084-1.8415 0.62185-1.8526 1.408 0 0 8e-3 0.33038-0.34899 0.89202-0.22669 0.35656-1.7934 2.6246-2.0354 5.0903-0.12104 1.2328 0.0962 2.6346 1.2661 3.7866 1.1699 1.152 3.1655 1.8316 5.7461 1.9205 2.1151 0.07288 3.9216-0.42257 5.1626-1.2834 1.2409-0.8608 1.888-1.99 2.205-3.063 0.31709-1.073 0.32279-2.1164 0.17778-2.9995-0.0723-0.44156-0.18091-0.84151-0.339-1.2095-0.158-0.36797-0.26475-0.70058-0.85921-1.1256 0.16158 0.11554-0.35543-0.55152-0.55203-1.1649-0.19658-0.61339-0.28635-1.1553-0.28635-1.1553-0.11374-0.70846-0.88539-1.2419-1.8046-1.2475zm-42.215 3.6825c-0.93788 0.01027-1.7145 0.56891-1.7995 1.2945 0 0-0.02282 0.18564-0.05706 0.40135-0.03044 0.19096-0.08772 0.38896-0.07076 0.36386-0.04641 0.07144-0.10986 0.16861-0.19027 0.29437-0.17323 0.27078-0.40648 0.64681-0.65168 1.0952-0.49047 0.89684-1.0406 2.079-1.267 3.3756-0.22641 1.2966-0.1396 2.7815 0.95972 4.0702 3.1454 2.6894 9.2006 3.5574 12.191 0.59346 1.235-1.2865 1.4181-2.8386 1.3232-4.2589-0.18974-2.8405-1.6578-5.5381-1.6578-5.5381-0.38252-0.72765-1.4519-1.0769-2.3889-0.78013-0.93743 0.29717-1.3871 1.1284-1.0043 1.8564 0 0 1.2473 2.4675 1.3903 4.6095 0.07151 1.071-0.17483 1.9642-0.60178 2.409-0.42702 0.44481-1.0316 0.77766-3.0108 0.62585-2.0264-0.15543-2.7777-0.61236-3.1849-1.0898-0.40724-0.47742-0.53954-1.2158-0.38244-2.1153 0.1571-0.89952 0.59303-1.8856 1.0077-2.644 0.20739-0.37921 0.40694-0.70224 0.56016-0.94187 0.07668-0.11982 0.14082-0.21831 0.194-0.3 0.05326-0.0817 0.03044 0.06086 0.20031-0.35623 0.16654-0.40928 0.17894-0.64885 0.22192-0.91731 0.04261-0.26845 0.06999-0.49485 0.06999-0.49485 0.09198-0.78319-0.651-1.4759-1.6594-1.5472-0.05174-0.0038-0.10324-0.0053-0.15497-0.0053-0.01217-9.1e-5 -0.02435-9.1e-5 -0.03652 0zm42.158 1.8031c0-0.0023 0.019 0.01376 0.0402 0.04055-0.0289-0.02511-0.041-0.03872-0.0402-0.04055zm50.439 44.112c-0.073-8.4e-5 -0.14592 0.0031-0.21865 0.0089l-139.11 12.171c-1.4287 0.11673-2.4922 1.3693-2.3758 2.798 0.11678 1.4289 1.3699 2.4926 2.7987 2.3757l30.605-2.499v5.7014c0 6.0612 5.5767 10.723 12.189 10.796-0.0137 0.0498-0.03652 0.0978-0.05021 0.14772-0.28088 1.0378-0.42771 2.039-0.42771 2.8853 7.5e-5 3.9552 3.4 7.6697 7.806 7.6698 4.4061 5e-5 7.8063-3.7145 7.8064-7.6698 0-0.84624-0.14675-1.8475-0.42756-2.8853-0.01217-0.0455-0.03271-0.0892-0.04565-0.13463h24.794c0.0518 0.26434 0.11489 0.36212 0.11352 0.67514 0 0.63494-0.2484 1.3033-0.19271 1.2603-0.0586 0.0684-0.77645 0.92201-1.4116 1.9014-0.66378 1.0236-1.3915 2.2972-1.3915 3.8941 0 3.9922 3.4601 7.4325 7.7363 7.4325 1.0558 1e-5 2.0698-0.19369 2.9959-0.54817 2.8722-1.0994 4.7412-3.9071 4.7412-6.8843 0-1.2744-0.38426-2.4559-0.89308-3.4862-0.48979-0.99177-1.0672-1.8307-1.8246-2.4663-0.16683-0.17059-0.25783-0.44956-0.20518-0.9768 0.0258-0.25531 0.10537-0.53878 0.19863-0.8016h3.1671c6.6805 0 12.343-4.6997 12.343-10.809v-11.991l31.485-3.3829c1.4287-0.11664 2.4923-1.3693 2.3758-2.798-0.10962-1.3443-1.2306-2.3805-2.5793-2.3846zm-34.61 8.8372v11.719c0 4.0229-3.8634 7.4807-9.014 7.4807h-4.2061c-0.55385 2e-5 -1.0714 0.27553-1.3807 0.735-0.55856 0.83015-0.97196 1.8688-1.0912 3.0639-0.11936 1.1951 0.12446 2.6755 1.2397 3.7365 0.0335 0.0321 0.0685 0.0629 0.10461 0.0923 0.1873 0.15044 0.67732 0.73845 1.0136 1.4193 0.33618 0.68081 0.54867 1.4666 0.54867 2.012 0 1.4674-1.1552 3.2223-2.6027 3.7764-0.5467 0.20925-1.1555 0.32802-1.805 0.32801-2.4314-1e-5 -4.4084-2.1367-4.4084-4.1044 0-0.40187 0.34805-1.3004 0.85541-2.0828 0.50744-0.78239 0.9846-1.2913 1.3678-1.8299 8e-3 -0.01 0.013-0.0192 0.0198-0.0289 0.70433-1.0352 0.7476-2.0169 0.75233-3.0991 8e-3 -1.0822-0.0901-2.1699-0.73652-3.2242-0.30256-0.49332-0.83973-0.79403-1.4185-0.79412h-28.709c-1.4742 0-2.2202 1.7755-1.1889 2.8289 0.05782 0.059 0.44315 0.74525 0.64841 1.5037 0.20526 0.75842 0.31222 1.6255 0.31222 2.0154-7.4e-5 1.8548-2.0997 4.341-4.4778 4.341-2.378-6e-5 -4.4779-2.4863-4.4779-4.341 7.7e-5 -0.38992 0.10773-1.257 0.31298-2.0154 0.20526-0.75842 0.59059-1.4446 0.64841-1.5037 1.0315-1.0536 0.28483-2.8292-1.1897-2.8289h-2.4685c-5.1505 0-9.0133-3.4578-9.0133-7.4807v-5.9732zm-15.434 2.5591c-1.0124 0-1.8329 0.47948-1.8326 1.0707v12.336c0 0.59097 0.82065 1.07 1.8326 1.0701 1.0124 0 1.8333-0.47895 1.8336-1.0701v-12.336c0-0.59139-0.8208-1.0708-1.8336-1.0707zm-20.024 1.2573c-1.0121 0-1.8326 0.47926-1.8326 1.0703v10.043c0 0.59118 0.82019 1.0706 1.8326 1.0707 1.0127 0 1.8339-0.47929 1.8335-1.0707v-10.043c0-0.59126-0.82103-1.0705-1.8335-1.0703zm-20.506 2.8516c-1.0124 0-1.8335 0.47907-1.8335 1.0703v7.1538c0 0.59117 0.82111 1.0703 1.8335 1.0701 1.0121 0 1.8324-0.47916 1.8326-1.0701v-7.1538c-7.7e-5 -0.59102-0.8205-1.0702-1.8326-1.0703z" color="#000000" color-rendering="auto" dominant-baseline="auto" fill="#cd00cd" image-rendering="auto" shape-rendering="auto" solid-color="#000000" stop-color="#000000" style="font-feature-settings:normal;font-variant-alternates:normal;font-variant-caps:normal;font-variant-east-asian:normal;font-variant-ligatures:normal;font-variant-numeric:normal;font-variant-position:normal;font-variation-settings:normal;inline-size:0;isolation:auto;mix-blend-mode:normal;shape-margin:0;shape-padding:0;text-decoration-color:#000000;text-decoration-line:none;text-decoration-style:solid;text-indent:0;text-orientation:mixed;text-transform:none;white-space:normal"/>
 </g>
 <g transform="matrix(.29222 0 0 .29222 1.2534 58.128)" fill="#fff" fill-rule="evenodd" stroke-width=".26458">
  <circle cx="242.35" cy="88.502" r="121.7"/>
  <circle cx="395.17" cy="81.984" r="121.7"/>
 </g>
 <circle cx="71.177" cy="84.296" r="30.921" fill="#f0b90b" stroke-width="1.0663"/>
 <path d="m59.646 84.296-4.731 4.764-4.764-4.764 4.764-4.764zm11.532-11.532 8.1483 8.1483 4.764-4.764-8.1473-8.1153-4.7651-4.764-12.879 12.878 4.764 4.764zm16.263 6.7675-4.731 4.764 4.764 4.764 4.731-4.764zm-16.263 16.296-8.1473-8.1483-4.731 4.764 12.878 12.879 12.911-12.911-4.764-4.731zm0-6.7675 4.764-4.764-4.764-4.764-4.764 4.764z" fill="#fffdfa" stroke-width="1.0663"/>
 <circle cx="71.177" cy="84.296" r="29.322" opacity=".1" stroke="#191326" stroke-width="3.1988" style="mix-blend-mode:multiply"/>
 <path d="m147.84 89.917c-4.2794 17.26-21.778 27.72-38.991 23.441-17.213-4.2794-27.722-21.777-23.443-38.989 4.2794-17.26 21.73-27.72 38.991-23.441 17.26 4.3267 27.721 21.777 23.442 38.989z" fill="#f7941d" stroke-width=".73961"/>
 <path d="m130.56 77.361c0.61757-4.2794-2.6152-6.5618-7.0854-8.1305l1.4267-5.8007-3.519-0.90306-1.426 5.658-2.8053-0.66565 1.426-5.7061-3.5183-0.90306-1.4267 5.8007c-0.76106-0.19008-1.5214-0.33282-2.2351-0.5229l-4.8496-1.2366-0.95114 3.7565 2.5679 0.61831c1.426 0.38016 1.7114 1.284 1.6641 2.0443l-1.6641 6.6091c0.0947 0.04734 0.23741 0.04734 0.38016 0.0954-0.0955-0.04733-0.23816-0.04733-0.38016-0.0954l-2.3305 9.2717c-0.19008 0.42823-0.61757 1.0939-1.6168 0.85572 0.0481 0.04734-2.5672-0.61831-2.5672-0.61831l-1.7595 4.0419 4.6122 1.1412 2.5206 0.66565-1.474 5.8481 3.5183 0.90305 1.4267-5.8007c0.95113 0.28549 1.9015 0.5229 2.8053 0.71298l-1.4267 5.7534 3.5191 0.90305 1.474-5.8481c6.0389 1.1412 10.556 0.66564 12.458-4.7549 1.5214-4.3748-0.0955-6.8946-3.2336-8.5587 2.2824-0.47557 3.9946-1.9969 4.4702-5.1351zm-8.0839 11.317c-1.0939 4.3748-8.464 1.9969-10.888 1.4267l1.9489-7.7503c2.4252 0.57024 10.081 1.7595 8.9396 6.3236zm1.0939-11.364c-0.99846 3.9939-7.1327 1.9496-9.1297 1.474l1.7595-7.0374c1.997 0.47557 8.416 1.3786 7.3702 5.5633z" fill="#fffdfa" stroke-width=".73961"/>
 <circle cx="116.62" cy="82.143" r="31.124" opacity=".2" stroke="#191326" stroke-width="2.0983" style="mix-blend-mode:multiply"/>
</svg>
