<?xml version="1.0" encoding="UTF-8" standalone="no"?>
<svg
   xmlns:dc="http://purl.org/dc/elements/1.1/"
   xmlns:cc="http://creativecommons.org/ns#"
   xmlns:rdf="http://www.w3.org/1999/02/22-rdf-syntax-ns#"
   xmlns:svg="http://www.w3.org/2000/svg"
   xmlns="http://www.w3.org/2000/svg"
   xmlns:sodipodi="http://sodipodi.sourceforge.net/DTD/sodipodi-0.dtd"
   xmlns:inkscape="http://www.inkscape.org/namespaces/inkscape"
   width="64mm"
   height="64mm"
   viewBox="0 0 64 64"
   version="1.1"
   id="svg923"
   sodipodi:docname="eth_bnb.svg"
   inkscape:version="1.0.1 (3bc2e813f5, 2020-09-07)"
   inkscape:export-filename="bnb_busd.png"
   inkscape:export-xdpi="136.95"
   inkscape:export-ydpi="136.95">
  <defs
     id="defs917" />
  <sodipodi:namedview
     id="base"
     pagecolor="#ffffff"
     bordercolor="#666666"
     borderopacity="1.0"
     inkscape:pageopacity="0.0"
     inkscape:pageshadow="2"
     inkscape:zoom="0.98994949"
     inkscape:cx="1.1916026"
     inkscape:cy="172.64313"
     inkscape:document-units="mm"
     inkscape:current-layer="g1550"
     inkscape:document-rotation="0"
     showgrid="false"
     inkscape:window-width="1346"
     inkscape:window-height="1016"
     inkscape:window-x="50"
     inkscape:window-y="27"
     inkscape:window-maximized="0"
     borderlayer="true"
     inkscape:pagecheckerboard="true" />
  <metadata
     id="metadata920">
    <rdf:RDF>
      <cc:Work
         rdf:about="">
        <dc:format>image/svg+xml</dc:format>
        <dc:type
           rdf:resource="http://purl.org/dc/dcmitype/StillImage" />
        <dc:title></dc:title>
      </cc:Work>
    </rdf:RDF>
  </metadata>
  <g
     inkscape:label="Capa 1"
     inkscape:groupmode="layer"
     id="layer1">
    <rect
       style="display:inline;opacity:1;fill:#f6f9e4;fill-opacity:1;stroke:#d3b6e4;stroke-width:1.48431;stroke-linecap:round;stroke-linejoin:round;stroke-miterlimit:4;stroke-dasharray:none;stroke-opacity:1"
       id="rect1189"
       width="43.744244"
       height="53.233257"
       x="10.77352"
       y="8.1702852" />
    <rect
       style="display:inline;opacity:1;fill:#e9e0ee;fill-opacity:1;stroke:#c793e6;stroke-width:0.634423;stroke-linecap:round;stroke-linejoin:round;stroke-miterlimit:4;stroke-dasharray:none;stroke-opacity:1"
       id="rect1990"
       width="27.77866"
       height="45.689117"
       x="18.723688"
       y="15.07797"
       ry="0.84781075" />
    <rect
       style="display:inline;opacity:1;fill:#dfd2e6;fill-opacity:1;stroke:none;stroke-width:0.634423;stroke-linecap:round;stroke-linejoin:round;stroke-miterlimit:4;stroke-dasharray:none;stroke-opacity:1"
       id="rect1990-7"
       width="26.185312"
       height="45.388771"
       x="20.596075"
       y="16.455677"
       ry="0.84781075" />
    <rect
       style="display:inline;opacity:1;fill:none;fill-opacity:1;stroke:#c793e6;stroke-width:0.634423;stroke-linecap:round;stroke-linejoin:round;stroke-miterlimit:4;stroke-dasharray:none;stroke-opacity:1"
       id="rect1990-3"
       width="27.77866"
       height="45.689121"
       x="18.723688"
       y="15.07797"
       ry="0.84781075" />
    <rect
       style="display:inline;opacity:1;fill:#e9e0ee;fill-opacity:1;stroke:#d3b6e4;stroke-width:1.48431;stroke-linecap:round;stroke-linejoin:round;stroke-miterlimit:4;stroke-dasharray:none;stroke-opacity:1"
       id="rect1189-3"
       width="43.867428"
       height="9.105135"
       x="10.711927"
       y="2.0559349" />
    <rect
       style="display:inline;opacity:1;fill:#d3a3ff;fill-opacity:1;stroke:none;stroke-width:0.0836484;stroke-linecap:round;stroke-linejoin:round;stroke-miterlimit:4;stroke-dasharray:none;stroke-opacity:1"
       id="rect1222"
       width="61.714531"
       height="5.5500827"
       x="1.2144642"
       y="58.654533" />
    <path
       id="rect1151"
       style="display:inline;opacity:1;fill:#9651bf;fill-opacity:1;stroke:none;stroke-width:3.99915;stroke-linecap:round;stroke-linejoin:round;stroke-miterlimit:4;stroke-dasharray:none;stroke-opacity:1"
       d="m 14.208821,11.853234 h 7.432806 l -2.230659,4.175381 h -2.971466 z"
       sodipodi:nodetypes="ccccc" />
    <path
       id="rect1151-0"
       style="display:inline;opacity:0.622513;fill:#ffffff;fill-opacity:1;stroke:none;stroke-width:3.99915;stroke-linecap:round;stroke-linejoin:round;stroke-miterlimit:4;stroke-dasharray:none;stroke-opacity:1"
       d="m 15.808582,11.853234 h 2.129714 l -0.05765,4.175381 h -0.702419 z"
       sodipodi:nodetypes="ccccc" />
    <rect
       style="display:inline;opacity:1;fill:#ffffff;fill-opacity:1;stroke:#9651bf;stroke-width:0.181199;stroke-linecap:round;stroke-linejoin:round;stroke-miterlimit:4;stroke-dasharray:none;stroke-opacity:1"
       id="rect1169"
       width="10.07769"
       height="11.192578"
       x="12.841018"
       y="0.59172606" />
    <rect
       style="display:inline;opacity:1;fill:#c793e6;fill-opacity:1;stroke:#d3b6e4;stroke-width:0.169298;stroke-linecap:round;stroke-linejoin:round;stroke-miterlimit:4;stroke-dasharray:none;stroke-opacity:1"
       id="rect1169-9"
       width="10.08959"
       height="5.2914395"
       x="12.835086"
       y="0.58578467" />
    <rect
       style="display:inline;opacity:1;fill:#c98bff;fill-opacity:1;stroke:#ab74cc;stroke-width:0.243025;stroke-linecap:round;stroke-linejoin:round;stroke-miterlimit:4;stroke-dasharray:none;stroke-opacity:1"
       id="rect1222-3"
       width="63.362389"
       height="1.0853789"
       x="0.32221752"
       y="-58.956032"
       transform="scale(1,-1)"
       ry="0.19505855"
       rx="0.088151" />
    <g
       id="g1550"
       transform="matrix(0.74748563,0,0,0.74748563,72.476542,68.340255)">
      <g
         id="g1474"
         transform="translate(0,1.8253161)">
        <path
           class="fil0"
           d="m -42.256148,-39.849647 c 0.378136,-0.817401 2.039605,-2.122533 2.633758,-2.999615 0.453847,0.195457 4.737448,4.192299 5.247799,4.746044 0.84993,-0.365322 4.127152,-4.683919 5.026104,-5.167947 0.661849,0.819881 2.421498,1.995993 2.861877,2.778522 -0.230057,0.449275 -7.192341,8.037779 -7.651267,8.231551 -1.35925,-1.484205 -7.555012,-6.691339 -8.118271,-7.588555 z m 5.695288,-25.928569 2.327265,-0.09489 c 2.542541,0.04745 5.130578,0.586801 7.770751,1.634243 2.04558,0.812839 4.330339,2.390973 5.922308,3.858207 0.903258,0.832483 1.626017,1.604994 2.370139,2.571147 2.485188,3.22779 3.88413,6.896376 4.22168,10.698013 l 0.08022,1.96727 c -0.01865,2.698472 -0.562488,5.433323 -1.620783,8.100871 -1.219851,3.072134 -3.838376,6.298552 -6.429291,8.29394 -3.227788,2.485191 -6.896376,3.884132 -10.698013,4.221681 l -1.967269,0.08021 c -2.698475,-0.01865 -5.433323,-0.562485 -8.100872,-1.620783 -0.596208,-0.23753 -1.084776,-0.513864 -1.677447,-0.811388 -1.396107,-0.700169 -3.126942,-2.013614 -4.246357,-3.046755 -0.903256,-0.832484 -1.626016,-1.604996 -2.370138,-2.571148 -0.339671,-0.441004 -0.752076,-0.977796 -1.054157,-1.487665 -2.380565,-4.001123 -3.0504,-6.337862 -3.252732,-11.300104 -0.267075,-6.550104 3.960943,-14.007668 9.54118,-17.327918 3.003426,-1.786276 6.060169,-2.852046 9.181965,-3.166364 z m 9.140008,20.39058 c 0.154481,-0.357915 2.421028,-2.785955 2.782009,-3.069997 l 2.952389,2.686556 c -0.14741,0.457875 -2.268294,2.715389 -2.769144,3.091915 z m -10.092207,0.254399 c 0.691386,-0.6207 2.212813,-2.681707 2.911226,-2.946588 l 2.96065,2.705668 c -0.216165,0.716535 -2.14991,2.426277 -2.711377,3.150907 -0.480159,-0.143512 -2.975508,-2.446216 -3.160499,-2.909987 z m -7.177483,-2.496326 2.965374,2.711463 c -0.151553,0.356299 -2.425325,2.790618 -2.751977,3.035854 -0.503716,-0.317612 -2.802845,-2.394903 -2.980645,-2.829043 z m 2.032627,-2.183593 c 0.08149,-0.166412 7.009615,-7.968981 7.65264,-8.234597 1.28176,1.418536 7.598603,6.73295 8.112417,7.591787 -0.379995,0.808497 -2.034577,2.135793 -2.626168,3.002295 -0.935375,-0.409235 -4.553311,-4.446687 -5.430158,-4.741601 -0.463576,0.593457 -4.406066,4.925714 -4.843989,5.15753 -0.670293,-0.843478 -2.384489,-1.969074 -2.866235,-2.775354 z"
           id="path1907"
           style="clip-rule:evenodd;fill:#f3ba2f;fill-rule:evenodd;stroke-width:0.149499;image-rendering:optimizeQuality;shape-rendering:geometricPrecision;text-rendering:geometricPrecision" />
        <path
           class="fil1"
           d="m -42.256148,-39.849647 c 0.56332,0.898712 6.759021,6.10435 8.118271,7.588555 0.458926,-0.193772 7.42115,-7.783769 7.651267,-8.231551 -0.440379,-0.782529 -2.200028,-1.958641 -2.861877,-2.778522 -0.898952,0.484028 -4.176174,4.802625 -5.026104,5.167947 -0.510351,-0.553745 -4.792456,-4.550647 -5.247799,-4.746044 -0.595646,0.877143 -2.255622,2.182214 -2.633758,2.999615 z"
           id="path1909"
           style="clip-rule:evenodd;fill:#fefefe;fill-rule:evenodd;stroke-width:0.149499;image-rendering:optimizeQuality;shape-rendering:geometricPrecision;text-rendering:geometricPrecision" />
        <path
           class="fil1"
           d="m -42.659408,-49.813096 c 0.481683,0.804787 2.195942,1.931876 2.866235,2.775354 0.436428,-0.231756 4.380413,-4.564073 4.843989,-5.15753 0.876847,0.294914 4.494783,4.332366 5.430158,4.741601 0.591591,-0.866502 2.246173,-2.193798 2.626168,-3.002295 -0.513814,-0.858837 -6.830657,-6.173251 -8.112417,-7.591787 -0.643025,0.265616 -7.571148,8.068185 -7.65264,8.234597 z"
           id="path1911"
           style="clip-rule:evenodd;fill:#fefefe;fill-rule:evenodd;stroke-width:0.149499;image-rendering:optimizeQuality;shape-rendering:geometricPrecision;text-rendering:geometricPrecision" />
        <path
           class="fil1"
           d="m -37.514552,-45.133177 c 0.184991,0.463771 2.68034,2.766475 3.160499,2.909987 0.561466,-0.724627 2.49521,-2.434371 2.711377,-3.150904 l -2.96065,-2.705671 c -0.696861,0.266317 -2.219777,2.327383 -2.911226,2.946588 z"
           id="path1913"
           style="clip-rule:evenodd;fill:#fefefe;fill-rule:evenodd;stroke-width:0.149499;image-rendering:optimizeQuality;shape-rendering:geometricPrecision;text-rendering:geometricPrecision" />
        <path
           class="fil1"
           d="m -27.420852,-45.387636 2.965254,2.708474 c 0.50079,-0.378019 2.621669,-2.635533 2.769144,-3.091915 l -2.952389,-2.686556 c -0.360981,0.284042 -2.627528,2.712082 -2.782009,3.069997 z"
           id="path1915"
           style="clip-rule:evenodd;fill:#fefefe;fill-rule:evenodd;stroke-width:0.149499;image-rendering:optimizeQuality;shape-rendering:geometricPrecision;text-rendering:geometricPrecision" />
        <path
           class="fil1"
           d="m -47.459344,-44.712722 c 0.179292,0.43408 2.478421,2.511371 2.980643,2.829043 0.326653,-0.245236 2.600424,-2.679554 2.75198,-3.035854 l -2.965377,-2.711463 z"
           id="path1917"
           style="clip-rule:evenodd;fill:#fefefe;fill-rule:evenodd;stroke-width:0.149499;image-rendering:optimizeQuality;shape-rendering:geometricPrecision;text-rendering:geometricPrecision" />
      </g>
    </g>
    <path
       id="rect1151-7"
       style="display:inline;opacity:1;fill:#9651bf;fill-opacity:1;stroke:none;stroke-width:3.99915;stroke-linecap:round;stroke-linejoin:round;stroke-miterlimit:4;stroke-dasharray:none;stroke-opacity:1"
       d="m 43.536105,11.853233 h 7.432806 l -2.230659,4.175382 h -2.971466 z"
       sodipodi:nodetypes="ccccc" />
    <path
       id="rect1151-0-5"
       style="display:inline;opacity:0.622513;fill:#ffffff;fill-opacity:1;stroke:none;stroke-width:3.99915;stroke-linecap:round;stroke-linejoin:round;stroke-miterlimit:4;stroke-dasharray:none;stroke-opacity:1"
       d="m 45.135866,11.853233 h 2.129714 l -0.05765,4.175382 h -0.702419 z"
       sodipodi:nodetypes="ccccc" />
    <rect
       style="display:inline;opacity:1;fill:#ffffff;fill-opacity:1;stroke:#9651bf;stroke-width:0.181199;stroke-linecap:round;stroke-linejoin:round;stroke-miterlimit:4;stroke-dasharray:none;stroke-opacity:1"
       id="rect1169-3"
       width="10.07769"
       height="11.192578"
       x="42.168301"
       y="0.59172547" />
    <rect
       style="display:inline;opacity:1;fill:#c793e6;fill-opacity:1;stroke:#d3b6e4;stroke-width:0.169298;stroke-linecap:round;stroke-linejoin:round;stroke-miterlimit:4;stroke-dasharray:none;stroke-opacity:1"
       id="rect1169-9-5"
       width="10.08959"
       height="5.2914395"
       x="42.162369"
       y="0.58578408" />
    <g
       id="g937"
       transform="matrix(0.07926894,0,0,0.07926894,7.7606695,19.94266)">
      <polygon
         fill="#343434"
         points="127.9611,287.958 255.9231,212.32 127.9611,0 125.1661,9.5 125.1661,285.168 "
         id="polygon925" />
      <polygon
         fill="#8c8c8c"
         points="0,212.32 127.962,287.959 127.962,154.158 127.962,0 "
         id="polygon927" />
      <polygon
         fill="#3c3c3b"
         points="127.9611,416.9066 255.9991,236.5866 127.9611,312.1866 126.3861,314.1066 126.3861,412.3056 "
         id="polygon929" />
      <polygon
         fill="#8c8c8c"
         points="127.962,312.1852 0,236.5852 127.962,416.9052 "
         id="polygon931" />
      <polygon
         fill="#141414"
         points="255.9211,212.3207 127.9611,154.1587 127.9611,287.9577 "
         id="polygon933" />
      <polygon
         fill="#393939"
         points="127.9609,287.9578 127.9609,154.1588 0.0009,212.3208 "
         id="polygon935" />
    </g>
  </g>
</svg>
