<?xml version="1.0" encoding="UTF-8" standalone="no"?>
<svg
   xmlns:dc="http://purl.org/dc/elements/1.1/"
   xmlns:cc="http://creativecommons.org/ns#"
   xmlns:rdf="http://www.w3.org/1999/02/22-rdf-syntax-ns#"
   xmlns:svg="http://www.w3.org/2000/svg"
   xmlns="http://www.w3.org/2000/svg"
   xmlns:sodipodi="http://sodipodi.sourceforge.net/DTD/sodipodi-0.dtd"
   xmlns:inkscape="http://www.inkscape.org/namespaces/inkscape"
   width="64mm"
   height="64mm"
   viewBox="0 0 64 64"
   version="1.1"
   id="svg923"
   sodipodi:docname="icecream_busd.svg"
   inkscape:version="1.0.1 (3bc2e813f5, 2020-09-07)">
  <defs
     id="defs917" />
  <sodipodi:namedview
     id="base"
     pagecolor="#ffffff"
     bordercolor="#666666"
     borderopacity="1.0"
     inkscape:pageopacity="0.0"
     inkscape:pageshadow="2"
     inkscape:zoom="1.979899"
     inkscape:cx="139.16831"
     inkscape:cy="155.0212"
     inkscape:document-units="mm"
     inkscape:current-layer="layer1"
     inkscape:document-rotation="0"
     showgrid="false"
     inkscape:window-width="1346"
     inkscape:window-height="1016"
     inkscape:window-x="50"
     inkscape:window-y="27"
     inkscape:window-maximized="0"
     borderlayer="true"
     inkscape:pagecheckerboard="true" />
  <metadata
     id="metadata920">
    <rdf:RDF>
      <cc:Work
         rdf:about="">
        <dc:format>image/svg+xml</dc:format>
        <dc:type
           rdf:resource="http://purl.org/dc/dcmitype/StillImage" />
        <dc:title></dc:title>
      </cc:Work>
    </rdf:RDF>
  </metadata>
  <g
     inkscape:label="Capa 1"
     inkscape:groupmode="layer"
     id="layer1">
    <rect
       style="display:inline;opacity:1;fill:#f6f9e4;fill-opacity:1;stroke:#d3b6e4;stroke-width:1.48431;stroke-linecap:round;stroke-linejoin:round;stroke-miterlimit:4;stroke-dasharray:none;stroke-opacity:1"
       id="rect1189"
       width="43.744244"
       height="53.233257"
       x="10.77352"
       y="8.1702852" />
    <rect
       style="display:inline;opacity:1;fill:#e9e0ee;fill-opacity:1;stroke:#c793e6;stroke-width:0.634423;stroke-linecap:round;stroke-linejoin:round;stroke-miterlimit:4;stroke-dasharray:none;stroke-opacity:1"
       id="rect1990"
       width="27.77866"
       height="45.689117"
       x="18.723688"
       y="15.07797"
       ry="0.84781075" />
    <rect
       style="display:inline;opacity:1;fill:#dfd2e6;fill-opacity:1;stroke:none;stroke-width:0.634423;stroke-linecap:round;stroke-linejoin:round;stroke-miterlimit:4;stroke-dasharray:none;stroke-opacity:1"
       id="rect1990-7"
       width="26.185312"
       height="45.388771"
       x="20.596075"
       y="16.455677"
       ry="0.84781075" />
    <rect
       style="display:inline;opacity:1;fill:none;fill-opacity:1;stroke:#c793e6;stroke-width:0.634423;stroke-linecap:round;stroke-linejoin:round;stroke-miterlimit:4;stroke-dasharray:none;stroke-opacity:1"
       id="rect1990-3"
       width="27.77866"
       height="45.689121"
       x="18.723688"
       y="15.07797"
       ry="0.84781075" />
    <rect
       style="display:inline;opacity:1;fill:#e9e0ee;fill-opacity:1;stroke:#d3b6e4;stroke-width:1.48431;stroke-linecap:round;stroke-linejoin:round;stroke-miterlimit:4;stroke-dasharray:none;stroke-opacity:1"
       id="rect1189-3"
       width="43.867428"
       height="9.105135"
       x="10.711927"
       y="2.0559349" />
    <rect
       style="display:inline;opacity:1;fill:#d3a3ff;fill-opacity:1;stroke:none;stroke-width:0.0836484;stroke-linecap:round;stroke-linejoin:round;stroke-miterlimit:4;stroke-dasharray:none;stroke-opacity:1"
       id="rect1222"
       width="61.714531"
       height="5.5500827"
       x="1.2144642"
       y="58.654533" />
    <path
       id="rect1151"
       style="display:inline;opacity:1;fill:#9651bf;fill-opacity:1;stroke:none;stroke-width:3.99915;stroke-linecap:round;stroke-linejoin:round;stroke-miterlimit:4;stroke-dasharray:none;stroke-opacity:1"
       d="m 14.208821,11.853234 h 7.432806 l -2.230659,4.175381 h -2.971466 z"
       sodipodi:nodetypes="ccccc" />
    <path
       id="rect1151-0"
       style="display:inline;opacity:0.622513;fill:#ffffff;fill-opacity:1;stroke:none;stroke-width:3.99915;stroke-linecap:round;stroke-linejoin:round;stroke-miterlimit:4;stroke-dasharray:none;stroke-opacity:1"
       d="m 15.808582,11.853234 h 2.129714 l -0.05765,4.175381 h -0.702419 z"
       sodipodi:nodetypes="ccccc" />
    <rect
       style="display:inline;opacity:1;fill:#ffffff;fill-opacity:1;stroke:#9651bf;stroke-width:0.181199;stroke-linecap:round;stroke-linejoin:round;stroke-miterlimit:4;stroke-dasharray:none;stroke-opacity:1"
       id="rect1169"
       width="10.07769"
       height="11.192578"
       x="12.841018"
       y="0.59172606" />
    <rect
       style="display:inline;opacity:1;fill:#c793e6;fill-opacity:1;stroke:#d3b6e4;stroke-width:0.169298;stroke-linecap:round;stroke-linejoin:round;stroke-miterlimit:4;stroke-dasharray:none;stroke-opacity:1"
       id="rect1169-9"
       width="10.08959"
       height="5.2914395"
       x="12.835086"
       y="0.58578467" />
    <rect
       style="display:inline;opacity:1;fill:#c98bff;fill-opacity:1;stroke:#ab74cc;stroke-width:0.243025;stroke-linecap:round;stroke-linejoin:round;stroke-miterlimit:4;stroke-dasharray:none;stroke-opacity:1"
       id="rect1222-3"
       width="63.362389"
       height="1.0853789"
       x="0.32221752"
       y="-58.956032"
       transform="scale(1,-1)"
       ry="0.19505855"
       rx="0.088151" />
    <g
       id="g885"
       transform="matrix(0.10527123,0,0,0.10527123,-15.666318,25.647572)">
      <path
         id="rect876-5-2"
         style="font-variation-settings:normal;opacity:1;vector-effect:none;fill:#cb6c34;fill-opacity:1;stroke:#9d5329;stroke-width:6.53301;stroke-linecap:butt;stroke-linejoin:round;stroke-miterlimit:4;stroke-dasharray:none;stroke-dashoffset:0;stroke-opacity:1;stop-color:#000000;stop-opacity:1"
         d="m 317.06664,283.98382 c -12.18731,0.14716 -24.66994,-6.96108 -24.42247,-27.18893 -0.0318,-29.201 0.55834,-60.08362 0.45311,-89.39958 0.7465,-0.0313 3.05139,-0.0407 6.75567,-0.0407 h 32.7729 c 3.70429,0 6.65648,-0.004 6.65648,-0.004 l 0.0282,89.11892 c 0.14599,14.54515 -10.05658,27.36715 -22.24389,27.51431 z"
         sodipodi:nodetypes="zccssccz" />
      <path
         id="rect876-5-3"
         style="font-variation-settings:normal;opacity:1;vector-effect:none;fill:#ff00ff;fill-opacity:1;stroke:none;stroke-width:35.7335;stroke-linecap:butt;stroke-linejoin:round;stroke-miterlimit:4;stroke-dasharray:none;stroke-dashoffset:0;stroke-opacity:1;stop-color:#000000;stop-opacity:1"
         d="m 887.08984,266.60547 c -197.65851,-0.1251 -392.90024,151.41334 -392.90039,337.51758 0,4.63494 0.11087,9.26933 0.33008,13.90039 v 461.24216 86.1836 c 0,0.8498 0.0123,1.6966 0.0371,2.541 2e-5,7e-4 -2e-5,0 0,0 0.0248,0.8438 0.062,1.6852 0.11133,2.5234 4e-5,7e-4 -4e-5,0 0,0 0.0986,1.6772 0.24653,3.3426 0.44141,4.9961 7e-5,6e-4 -8e-5,0 0,0 0.19493,1.6535 0.43775,3.2942 0.72656,4.9219 1.1e-4,6e-4 -1.1e-4,0 0,0 0.28884,1.6276 0.62355,3.2418 1.0039,4.8417 1.5e-4,7e-4 -1.4e-4,0 0,0 0.19012,0.7996 0.39294,1.5963 0.60547,2.3887 1.7e-4,6e-4 -1.6e-4,0 0,0 0.42525,1.5853 0.89499,3.1546 1.40821,4.709 1.9e-4,6e-4 -2e-4,0 0,0 0.51327,1.5544 1.07105,3.0936 1.66992,4.6152 2.2e-4,6e-4 -2.3e-4,0 0,0 1.79716,4.5659 3.9746,8.979 6.5,13.2128 2.9e-4,5e-4 -2.9e-4,0 0,0 0.42068,0.7052 0.85116,1.4045 1.29101,2.0996 3e-4,5e-4 -2.9e-4,0 0,0 0.88004,1.3907 1.7989,2.7605 2.75391,4.1093 3.1e-4,5e-4 -3.1e-4,0 0,0 0.47737,0.6742 0.96528,1.3425 1.46094,2.0058 3.1e-4,5e-4 -3.2e-4,0 0,0 0.49567,0.6633 1.00195,1.3204 1.51562,1.9727 3.2e-4,4e-4 -3.2e-4,0 0,0 1.02769,1.3049 2.09151,2.5869 3.18946,3.8457 3.2e-4,4e-4 -3.3e-4,0 0,0 0.54883,0.6292 1.10788,1.2517 1.67382,1.8691 3.3e-4,4e-4 -3.3e-4,0 0,0 1.13224,1.2351 2.2991,2.4447 3.49805,3.6308 0.59997,0.5936 1.20798,1.1809 1.82422,1.7617 2.46354,2.3223 5.05597,4.5426 7.76758,6.6524 2.71165,2.1098 5.54162,4.1091 8.48242,5.9902 2.20557,1.4109 4.47367,2.755 6.79883,4.0293 1.54936,0.8491 3.1251,1.6672 4.72461,2.4531 7.8e-4,4e-4 10e-4,0 0.002,0 1.59954,0.7859 3.22377,1.5391 4.87109,2.2598 7.9e-4,3e-4 10e-4,0 0.002,0 1.64737,0.7207 3.31892,1.4071 5.01171,2.0606 8e-4,3e-4 10e-4,0 0.002,0 0.84602,0.3266 1.69776,0.6438 2.55469,0.9531 7.9e-4,3e-4 10e-4,0 0.002,0 1.71545,0.6193 3.45162,1.2029 5.20898,1.7519 3.5147,1.098 7.11113,2.0529 10.7793,2.8575 2.75115,0.6034 5.54293,1.1223 8.37109,1.5527 1.88544,0.2869 3.78642,0.5347 5.70313,0.7422 1.84913,0.2001 3.71377,0.36 5.58984,0.4844 0.068,0 0.13513,0.011 0.20313,0.016 6.5e-4,0 0.001,-10e-5 0.002,0 2.91779,0.1889 5.86759,0.2851 8.84375,0.2851 h 26.50195 c -0.62238,0.6355 -1.22745,1.3354 -1.81445,2.0938 -3.1e-4,4e-4 3.1e-4,0 0,0 -0.58667,0.7581 -1.15617,1.5734 -1.70703,2.4395 -3e-4,5e-4 2.9e-4,0 0,0 -0.82641,1.2995 -1.61294,2.7118 -2.35742,4.2129 -2.6e-4,6e-4 2.6e-4,0 0,0 -2.23391,4.5046 -4.09668,9.8056 -5.56446,15.2285 -0.32617,1.2052 -0.63288,2.4151 -0.91992,3.625 -1.4e-4,6e-4 1.5e-4,0 0,0 -0.052,0.2193 -0.0938,0.437 -0.14453,0.6562 -0.50909,2.1992 -0.96264,4.3902 -1.33984,6.5274 -0.20738,1.175 -0.39371,2.3332 -0.56055,3.4687 -0.16698,1.1362 -0.31352,2.2483 -0.43945,3.3301 -0.25172,2.1623 -0.42099,4.2004 -0.50586,6.0566 -0.0424,0.9281 -0.0644,1.8112 -0.0644,2.6406 10e-6,0.9746 0.029,1.9502 0.0859,2.9278 0.17096,2.9327 0.5951,5.874 1.25391,8.7949 0.43921,1.9473 0.98278,3.8862 1.625,5.8066 0.32109,0.9603 0.66733,1.915 1.03711,2.8653 2.2e-4,6e-4 -2.2e-4,0 0,0 1.10917,2.8504 2.43473,5.651 3.95703,8.3731 1.52286,2.723 3.24164,5.366 5.14062,7.9023 1.26576,1.6906 2.61221,3.3339 4.03125,4.9199 3.54763,3.9652 7.55655,7.5764 11.94141,10.6993 0.87695,0.6245 1.76754,1.23 2.67383,1.8144 5.43827,3.5068 11.39202,6.2703 17.71289,8.0586 5.26695,1.4902 10.78866,2.3027 16.47852,2.3027 5.68999,10e-5 11.2115,-0.8126 16.47851,-2.3027 1.05341,-0.298 2.09656,-0.6235 3.12891,-0.9746 2.06411,-0.7021 4.08501,-1.5086 6.05664,-2.4102 0.98608,-0.4509 1.961,-0.9262 2.92187,-1.4238 1.92125,-0.9949 3.79132,-2.0816 5.60352,-3.25 4.5e-4,-3e-4 0.002,3e-4 0.002,0 2.71895,-1.7531 5.30761,-3.6918 7.75,-5.7871 1.62828,-1.3968 3.19009,-2.8633 4.68164,-4.3906 2.23768,-2.2913 4.31596,-4.7176 6.21485,-7.2539 3.1e-4,-4e-4 -3.2e-4,0 0,0 0.63255,-0.8449 1.24568,-1.7006 1.83789,-2.5683 3e-4,-5e-4 -3.1e-4,0 0,0 0.59217,-0.8677 1.1644,-1.7463 1.71484,-2.6348 3e-4,-4e-4 -3e-4,0 0,0 1.10141,-1.7779 2.1189,-3.5935 3.04492,-5.4414 0.46328,-0.9245 0.90301,-1.8562 1.32031,-2.7949 0.41709,-0.9382 0.8099,-1.8818 1.17969,-2.8321 0.36979,-0.9503 0.71601,-1.9069 1.03711,-2.8672 0.64202,-1.9199 1.18587,-3.8579 1.625,-5.8046 1.4e-4,-7e-4 -1.4e-4,0 0,0 0.2196,-0.9737 0.4133,-1.9486 0.58008,-2.9258 0.33355,-1.9542 0.55986,-3.9139 0.67383,-5.8691 0.057,-0.9776 0.0859,-1.9532 0.0859,-2.9278 2e-5,-1.6588 -0.0853,-3.5307 -0.25391,-5.5546 -0.15885,-1.9065 -0.39786,-3.9554 -0.70313,-6.084 -0.18087,-1.2613 -0.38187,-2.5458 -0.61328,-3.8574 -1.4513,-8.2255 -3.8886,-17.2401 -7.23437,-24.5098 -0.47796,-1.0386 -0.97548,-2.042 -1.49024,-3.002 -0.25738,-0.4799 -0.51866,-0.9487 -0.78515,-1.4062 -1.06595,-1.8303 -2.20468,-3.4735 -3.41407,-4.8711 -0.30234,-0.3494 -0.60875,-0.6842 -0.91992,-1.002 H 1044.883 c 0.4559,0.7437 0.8808,1.5471 1.2754,2.4024 0.1973,0.4276 0.3862,0.8678 0.5684,1.3203 3e-4,8e-4 0,0 0,0 0.364,0.9043 0.6976,1.8561 1.002,2.8476 2e-4,6e-4 -2e-4,0 0,0 0.1521,0.4956 0.2981,1.0012 0.4355,1.5156 2e-4,6e-4 -10e-5,0 0,0 0.1374,0.5144 0.2678,1.0373 0.3906,1.5684 0.022,0.094 0.039,0.1923 0.061,0.2871 0.3051,1.3549 0.5566,2.7639 0.7695,4.2012 0.024,0.1632 0.059,0.3183 0.082,0.4824 0,6e-4 -10e-5,0 0,0 0.4794,3.4188 0.7048,7.0118 0.6894,10.5605 0,6e-4 0,0 0,0 -0.015,3.5487 -0.2721,7.0533 -0.7539,10.2949 -10e-5,6e-4 10e-5,0 0,0 -0.1606,1.0801 -0.3464,2.131 -0.5566,3.1446 -2e-4,6e-4 10e-5,0 0,0 -0.1051,0.5064 -0.2167,1.0034 -0.334,1.4902 -2e-4,7e-4 10e-5,0 0,0 -0.3522,1.4616 -0.7589,2.8299 -1.2188,4.0781 -3e-4,8e-4 0,0 0,0 -0.1531,0.4154 -0.3119,0.8193 -0.4766,1.207 -0.4952,1.1655 -1.0424,2.2009 -1.6406,3.0801 -0.2541,0.357 -0.582,0.7894 -0.9746,1.293 -7e-4,8e-4 0,0 0,0 -0.3922,0.5031 -0.8475,1.0769 -1.3574,1.7149 -6e-4,8e-4 0,0 0,0 -1.3092,1.638 -2.9923,3.7387 -4.8359,6.1328 -0.3128,0.4063 -0.6112,0.7842 -0.9336,1.209 -3e-4,4e-4 3e-4,0 0,0 -0.7405,0.9759 -1.5051,1.9987 -2.2812,3.0644 -4e-4,4e-4 3e-4,0 0,0 -0.3222,0.4424 -0.6528,0.9204 -0.9786,1.3769 -2.0295,2.8436 -4.1085,5.9244 -6.0722,9.2012 -1.8992,3.169 -3.6849,6.4946 -5.1953,9.8887 -0.9063,2.0364 -1.7131,4.0975 -2.3868,6.164 -0.6736,2.0665 -1.2143,4.1371 -1.5859,6.1953 -0.1239,0.6861 -0.2293,1.3705 -0.3144,2.0528 -0.1705,1.3653 -0.2598,2.7207 -0.2598,4.0625 0,1.9994 0.1134,3.9902 0.3359,5.9668 0.2226,1.9765 0.5541,3.9388 0.9883,5.8789 0.2171,0.97 0.4606,1.9342 0.7285,2.8926 0.536,1.9167 1.1712,3.8081 1.9024,5.6679 0.7312,1.8598 1.5571,3.6873 2.4726,5.4766 0.9156,1.7893 1.9209,3.5409 3.0098,5.2461 1.0889,1.7051 2.2622,3.3652 3.5137,4.9726 2.5028,3.2148 5.319,6.2208 8.4062,8.9629 0.7718,0.6856 1.5603,1.3541 2.3653,2.0059 4.8298,3.9109 10.2437,7.196 16.0937,9.6758 0.9749,0.4132 1.9605,0.8043 2.959,1.1718 1.9975,0.7354 4.0395,1.3777 6.123,1.92 2.083,0.5421 4.2072,0.9848 6.3653,1.3203 3.2371,0.5032 6.5523,0.7656 9.9277,0.7656 1.1435,0 2.2811,-0.026 3.4102,-0.078 1.1296,-0.052 2.2534,-0.1283 3.3671,-0.2305 6.6828,-0.613 13.0657,-2.1232 18.9942,-4.3926 2.8979,-1.1092 5.6871,-2.464 8.3496,-4.0293 0.6657,-0.3914 1.325,-0.7954 1.9746,-1.2129 1.9488,-1.2523 3.8237,-2.6191 5.6172,-4.0879 1.1956,-0.9791 2.3556,-2.0048 3.4766,-3.0703 1.1209,-1.0654 2.2024,-2.1706 3.2441,-3.3144 3e-4,-4e-4 -3e-4,0 0,0 0.5208,-0.5719 1.0311,-1.1521 1.5312,-1.7422 0.5005,-0.5904 0.9895,-1.1893 1.4688,-1.7968 0.4786,-0.6068 0.9474,-1.221 1.4043,-1.8438 3e-4,-4e-4 -3e-4,0 0,0 0.4568,-0.6229 0.9034,-1.2527 1.3379,-1.8907 3e-4,-4e-4 -3e-4,0 0,0 0.4348,-0.6384 0.8596,-1.2831 1.2715,-1.9356 0.4121,-0.653 0.8106,-1.3123 1.1992,-1.9785 0.3881,-0.6651 0.7648,-1.3364 1.1289,-2.0137 3e-4,-5e-4 -3e-4,0 0,0 0.3643,-0.6778 0.7169,-1.3599 1.0566,-2.0488 0.6797,-1.3785 1.3091,-2.7781 1.8867,-4.1953 0.2888,-0.7084 0.5638,-1.4203 0.8262,-2.1368 0.525,-1.4336 0.9978,-2.8814 1.4141,-4.3418 0.208,-0.7299 0.402,-1.4621 0.582,-2.1972 0.3602,-1.4709 0.6636,-2.9498 0.9082,-4.4356 0.1223,-0.7425 0.2297,-1.4856 0.3223,-2.2304 0.2777,-2.2344 0.4199,-4.4763 0.4199,-6.7129 0,-5.4952 -1.015,-11.2408 -2.7109,-16.8516 -0.1884,-0.6234 -0.3851,-1.2438 -0.5899,-1.8633 -0.4097,-1.2395 -0.8507,-2.4698 -1.3203,-3.6875 -0.4693,-1.2171 -0.9664,-2.4205 -1.4883,-3.6074 -1.5657,-3.5611 -3.3499,-6.9658 -5.2558,-10.1016 -0.6352,-1.0451 -1.2851,-2.0601 -1.9434,-3.041 -0.6583,-0.9809 -1.3259,-1.9277 -2,-2.8359 -2.0221,-2.7248 -4.0974,-5.1033 -6.1289,-7.0215 -0.6772,-0.6394 -1.3502,-1.2269 -2.0137,-1.7598 -1.7352,-1.6509 -3.1498,-3.4799 -4.2832,-5.4414 -0.2833,-0.4902 -0.5502,-0.9881 -0.7988,-1.4941 -0.7457,-1.518 -1.3375,-3.1026 -1.791,-4.7363 -0.3024,-1.0892 -0.5427,-2.2001 -0.7266,-3.3262 -0.1839,-1.1261 -0.3101,-2.2685 -0.3847,-3.4199 -0.112,-1.7273 -0.1063,-3.4769 0,-5.2285 0.072,-1.1678 0.189,-2.336 0.3477,-3.5 0.2379,-1.7462 0.5678,-3.4823 0.9746,-5.1875 0.2712,-1.1369 0.5773,-2.2592 0.9121,-3.3633 0.6695,-2.2084 1.457,-4.3397 2.3262,-6.3477 1.3037,-3.0119 2.7905,-5.747 4.3379,-8.0469 h 45.1582 c 2.9768,0 5.9272,-0.096 8.8457,-0.2851 1.9456,-0.126 3.8762,-0.2926 5.7929,-0.5 1.9168,-0.2075 3.8196,-0.4553 5.7051,-0.7422 2.8282,-0.4304 5.6199,-0.9493 8.3711,-1.5527 3.6682,-0.8046 7.2645,-1.7595 10.7793,-2.8575 5.2722,-1.6469 10.3607,-3.6152 15.2344,-5.8769 2.4368,-1.1309 4.8193,-2.3351 7.1445,-3.6094 2.3252,-1.2743 4.5932,-2.6184 6.7988,-4.0293 2.9404,-1.8808 5.7711,-3.8808 8.4824,-5.9902 2.7118,-2.1098 5.3059,-4.3301 7.7696,-6.6524 0.6162,-0.5808 1.2223,-1.1681 1.8222,-1.7617 6.5964,-6.5252 12.2011,-13.8063 16.6172,-21.6777 0.803,-1.4312 1.5659,-2.8825 2.2891,-4.3516 2.1692,-4.4067 3.9758,-8.9799 5.3848,-13.6914 10e-5,-6e-4 -2e-4,0 0,0 1.6437,-5.4969 2.7489,-11.1826 3.2636,-17.0137 10e-5,-7e-4 0,0 0,0 0.2206,-2.4993 0.3322,-5.0249 0.3321,-7.5742 l -0.01,-155.5078 -0.037,-415.94921 C 1283.7021,424.68481 1096.7683,271.7628 896.50391,266.72852 c -3.13788,-0.079 -6.27664,-0.12078 -9.41407,-0.12305 z"
         transform="matrix(0.26458333,0,0,0.26458333,80.39201,-141.85799)" />
      <path
         id="path1012-9"
         style="color:#000000;font-style:normal;font-variant:normal;font-weight:normal;font-stretch:normal;font-size:medium;line-height:normal;font-family:sans-serif;font-variant-ligatures:normal;font-variant-position:normal;font-variant-caps:normal;font-variant-numeric:normal;font-variant-alternates:normal;font-variant-east-asian:normal;font-feature-settings:normal;font-variation-settings:normal;text-indent:0;text-align:start;text-decoration:none;text-decoration-line:none;text-decoration-style:solid;text-decoration-color:#000000;letter-spacing:normal;word-spacing:normal;text-transform:none;writing-mode:lr-tb;direction:ltr;text-orientation:mixed;dominant-baseline:auto;baseline-shift:baseline;text-anchor:start;white-space:normal;shape-padding:0;shape-margin:0;inline-size:0;clip-rule:nonzero;display:inline;overflow:visible;visibility:visible;opacity:1;isolation:auto;mix-blend-mode:normal;color-interpolation:sRGB;color-interpolation-filters:linearRGB;solid-color:#000000;solid-opacity:1;vector-effect:none;fill:#cd00cd;fill-opacity:1;fill-rule:nonzero;stroke:none;stroke-width:34.6846;stroke-linecap:round;stroke-linejoin:miter;stroke-miterlimit:4;stroke-dasharray:none;stroke-dashoffset:0;stroke-opacity:1;color-rendering:auto;image-rendering:auto;shape-rendering:auto;text-rendering:auto;enable-background:accumulate;stop-color:#000000;stop-opacity:1"
         d="m 887.09766,248.73438 c -0.50266,9.4e-4 -1.00506,0.0231 -1.50586,0.0664 -102.88003,0.31606 -204.12451,39.48694 -280.4961,102.99219 -76.74531,63.81601 -128.77727,153.02806 -128.77734,252.32812 0,4.63637 0.12548,9.27277 0.33203,13.90039 v 500.15622 l 35.73633,-3.0664 V 618.02148 c -5.5e-4,-0.28073 -0.008,-0.5614 -0.0215,-0.84179 -0.20602,-4.35259 -0.31054,-8.70824 -0.31054,-13.0586 7e-5,-86.80414 45.5986,-166.40329 115.88867,-224.85156 70.29003,-58.44826 164.87321,-94.85849 259.13281,-94.79883 2.98817,0.002 5.98065,0.0418 8.97656,0.11719 95.72841,2.40644 189.03188,40.4445 257.94528,97.89258 59.227,49.37307 99.5761,112.57071 110.3614,178.96094 l 3.4004,488.88089 35.7382,-3.0664 -2.9453,-488.91996 C 1288.7846,480.75298 1242.1334,409.43431 1176.875,355.0332 1101.7833,292.43479 1001.4891,251.49504 896.95312,248.86719 c -3.27979,-0.0826 -6.56882,-0.13048 -9.85546,-0.13281 z m -10.78198,178.65208 c -10.87259,-0.002 -19.68725,5.88557 -19.6836,13.14758 v 699.45616 c 0.002,7.2594 8.81494,13.143 19.6836,13.1409 10.86484,0 19.67191,-5.8841 19.67382,-13.1409 V 440.53404 c 0.004,-7.25946 -8.80505,-13.14612 -19.67382,-13.14758 z m 222.12772,-15.07201 c -0.8684,-0.004 -1.7362,0.0363 -2.5977,0.1211 -10.7818,1.05042 -18.4266,8.68991 -17.0762,17.06445 0,0 1.1779,7.39989 3.9317,15.99219 2.6111,8.14715 4.6032,17.5292 15.5976,26.19922 0.1421,0.1878 0.2902,0.40679 0.4082,0.68164 0.6367,1.48214 1.4292,4.09529 1.9356,7.17968 1.0127,6.16884 0.8964,14.31377 -1.2246,21.49219 -2.121,7.1785 -6.0362,13.10988 -11.5313,16.92188 -5.4952,3.81195 -12.8668,6.54786 -27.4668,6.04492 -20.3961,-0.70265 -28.3101,-4.86291 -32.5273,-9.01563 -4.2172,-4.15268 -6.0989,-10.69225 -5.2442,-19.39843 1.7096,-17.41255 14.6573,-38.34296 17.8926,-43.43164 7.5048,-11.80354 7.8047,-22.7793 7.8047,-22.7793 0.1168,-8.4393 -8.5955,-15.35474 -19.4609,-15.44727 -10.8656,-0.091 -19.7694,6.67586 -19.8887,15.11524 0,0 0.088,3.54673 -3.7461,9.57617 -2.4337,3.82779 -19.2528,28.1766 -21.85156,54.64648 -1.2994,13.235 1.03239,28.2831 13.59179,40.65039 12.55937,12.3673 33.98267,19.66275 61.68747,20.61719 22.7063,0.78221 42.1005,-4.5364 55.4219,-13.77734 13.3213,-9.24098 20.2683,-21.36353 23.6719,-32.88281 3.4037,-11.51932 3.4647,-22.72072 1.9082,-32.20118 -0.7782,-4.74032 -1.9419,-9.03401 -3.6387,-12.98437 -1.6968,-3.95029 -2.8427,-7.52092 -9.2246,-12.08399 1.7347,1.24029 -3.8154,-5.9208 -5.9258,-12.50585 -2.1105,-6.58504 -3.0742,-12.40235 -3.0742,-12.40235 -1.2208,-7.60559 -9.5054,-13.33275 -19.373,-13.39258 z m -453.19731,39.53321 c -10.06872,0.11064 -18.40525,6.10744 -19.31836,13.89648 0,0 -0.24254,1.99299 -0.61328,4.30859 -0.32844,2.05006 -0.94239,4.17566 -0.75976,3.90625 -0.49947,0.76645 -1.17942,1.81004 -2.04297,3.16016 -1.85919,2.90691 -4.36347,6.94379 -6.9961,11.75781 -5.26517,9.62801 -11.17068,22.31927 -13.60156,36.23828 -2.43084,13.91902 -1.4985,29.86043 10.30274,43.69532 11.80127,13.83492 33.72951,22.97947 63.1289,25.23437 29.90601,2.29383 54.49108,-5.05164 67.75,-18.86328 13.25881,-13.81164 15.22347,-30.47371 14.20508,-45.7207 -2.03682,-30.49402 -17.79687,-59.45313 -17.79687,-59.45313 -4.10681,-7.81167 -15.58688,-11.56054 -25.64649,-8.375 -10.06377,3.19022 -14.89114,12.11386 -10.78125,19.92969 0,0 13.3899,26.48996 14.92578,49.48438 0.76797,11.49719 -1.87686,21.08612 -6.46093,25.86132 -4.58408,4.77517 -11.07441,8.34852 -32.32227,6.71875 -21.75443,-1.66854 -29.81951,-6.57395 -34.19141,-11.69922 -4.37196,-5.12534 -5.79193,-13.05232 -4.10546,-22.70898 1.68641,-9.65666 6.36592,-20.24295 10.81835,-28.38477 2.22626,-4.07092 4.36826,-7.53875 6.01368,-10.11132 0.82269,-1.28637 1.51162,-2.34374 2.08203,-3.22071 0.57037,-0.877 0.32775,0.65377 2.15039,-3.82422 1.78805,-4.39377 1.92095,-6.96569 2.38281,-9.84765 0.46182,-2.88193 0.75,-5.3125 0.75,-5.3125 0.98731,-8.40781 -6.98928,-15.84482 -17.81445,-16.60938 -0.55334,-0.0384 -1.10853,-0.0586 -1.66407,-0.0605 -0.13151,-10e-4 -0.26302,-10e-4 -0.39453,0 z m 452.58401,19.35742 c 0.01,-0.0253 0.206,0.14831 0.4316,0.43554 -0.3088,-0.26931 -0.4371,-0.41568 -0.4316,-0.43554 z m 205.6679,576.05082 -35.7382,3.0664 0.01,115.125 c 0,43.1872 -41.476,80.3086 -96.7696,80.3086 h -45.1542 c -5.9459,3e-4 -11.5021,2.9581 -14.8223,7.8906 -5.9959,8.9121 -10.4339,20.0628 -11.7149,32.8926 -1.2809,12.8298 1.3359,28.7224 13.3086,40.1132 0.3604,0.3456 0.7351,0.676 1.1231,0.9903 2.0109,1.615 7.2714,7.9276 10.8808,15.2363 3.6095,7.3088 5.8907,15.7443 5.8907,21.5996 -10e-5,15.7534 -12.401,34.5924 -27.9414,40.541 -5.8684,2.2464 -12.405,3.5216 -19.377,3.5215 -26.1016,-2e-4 -47.3259,-22.9386 -47.3262,-44.0625 2e-4,-4.3142 3.7368,-13.9601 9.1836,-22.3594 5.4469,-8.3992 10.5694,-13.8628 14.6836,-19.6445 0.072,-0.1027 0.143,-0.2063 0.2129,-0.3105 7.5613,-11.1131 8.0253,-21.6517 8.0762,-33.2696 0.051,-11.6179 -0.9669,-23.2947 -7.9063,-34.6133 -3.2488,-5.2961 -9.0154,-8.5244 -15.2285,-8.5253 H 736.69336 c -15.8261,0 -23.83538,19.0606 -12.76367,30.3691 0.62067,0.6339 4.75778,8.0007 6.96093,16.1426 2.20317,8.1419 3.35161,17.4507 3.35157,21.6367 -4.2e-4,19.9112 -22.54025,46.6019 -48.07031,46.6016 -25.52928,-5e-4 -48.07189,-26.6909 -48.07227,-46.6016 7e-5,-4.1862 1.15587,-13.4949 3.35937,-21.6367 2.20351,-8.1419 6.34023,-15.5088 6.96094,-16.1426 11.07433,-11.3112 3.05838,-30.3722 -12.77148,-30.3691 h -26.5 c -55.29332,0 -96.76172,-37.1204 -96.76172,-80.3086 v -50.336 l -35.73633,3.0664 v 47.2696 c 0,65.0696 59.86822,115.1148 130.85156,115.8965 -0.14815,0.5351 -0.39408,1.0501 -0.53906,1.5859 -3.01527,11.1412 -4.59157,21.89 -4.5918,30.9746 8.4e-4,42.4603 36.49996,82.3371 83.80079,82.3379 47.30184,6e-4 83.80381,-39.8766 83.80468,-82.3379 1.5e-4,-9.0847 -1.57506,-19.8334 -4.58984,-30.9746 -0.13206,-0.4879 -0.35366,-0.9575 -0.48828,-1.4453 h 266.17576 c 0.5589,2.8378 1.2335,3.8876 1.2188,7.248 -0.03,6.8162 -2.6669,13.9918 -2.0684,13.5293 -0.6281,0.734 -8.336,9.8981 -15.1543,20.4121 -7.1264,10.9892 -14.9389,24.6608 -14.9394,41.8047 3e-4,42.8581 37.1458,79.7907 83.0527,79.791 11.3347,2e-4 22.2211,-2.0794 32.1621,-5.8847 30.8343,-11.803 50.8982,-41.9441 50.8984,-73.9063 1e-4,-13.681 -4.1256,-26.3652 -9.5879,-37.4258 -5.2575,-10.6469 -11.4568,-19.6532 -19.5878,-26.4765 -1.7911,-1.8313 -2.7683,-4.8262 -2.2032,-10.4864 0.2737,-2.7408 1.1317,-5.784 2.1328,-8.6054 h 34 c 71.7179,0 132.5092,-50.4531 132.5059,-116.0371 z M 1102.0664,598.80358 c -10.8684,10e-4 -19.677,5.14753 -19.6738,11.4941 v 546.73942 c 0,6.3443 8.8093,11.487 19.6738,11.4883 10.8684,0 19.6813,-5.1418 19.6836,-11.4883 V 610.29768 c 0,-6.34881 -8.8113,-11.49598 -19.6836,-11.4941 z m -435.10546,59.90609 c -10.86964,-0.002 -19.68308,5.14292 -19.6836,11.4902 v 481.31383 c 0.002,6.3465 8.81523,11.4902 19.6836,11.4883 10.86456,0 19.67151,-5.144 19.67383,-11.4883 V 670.19987 c -5.2e-4,-6.34505 -8.808,-11.48893 -19.67383,-11.4902 z"
         transform="matrix(0.26458333,0,0,0.26458333,80.39201,-141.85799)"
         sodipodi:nodetypes="ccsscccccssccsccccsscccccccccccsccsssssscccccssssssscsccscccssssssscccsssssssscsccccscscccsccsccssssssccscccssssssccssccscccsssccscscsssccscsscccccccccccccccc" />
    </g>
    <path
       id="rect1151-7"
       style="display:inline;opacity:1;fill:#9651bf;fill-opacity:1;stroke:none;stroke-width:3.99915;stroke-linecap:round;stroke-linejoin:round;stroke-miterlimit:4;stroke-dasharray:none;stroke-opacity:1"
       d="m 43.536105,11.853233 h 7.432806 l -2.230659,4.175382 h -2.971466 z"
       sodipodi:nodetypes="ccccc" />
    <path
       id="rect1151-0-5"
       style="display:inline;opacity:0.622513;fill:#ffffff;fill-opacity:1;stroke:none;stroke-width:3.99915;stroke-linecap:round;stroke-linejoin:round;stroke-miterlimit:4;stroke-dasharray:none;stroke-opacity:1"
       d="m 45.135866,11.853233 h 2.129714 l -0.05765,4.175382 h -0.702419 z"
       sodipodi:nodetypes="ccccc" />
    <rect
       style="display:inline;opacity:1;fill:#ffffff;fill-opacity:1;stroke:#9651bf;stroke-width:0.181199;stroke-linecap:round;stroke-linejoin:round;stroke-miterlimit:4;stroke-dasharray:none;stroke-opacity:1"
       id="rect1169-3"
       width="10.07769"
       height="11.192578"
       x="42.168301"
       y="0.59172547" />
    <rect
       style="display:inline;opacity:1;fill:#c793e6;fill-opacity:1;stroke:#d3b6e4;stroke-width:0.169298;stroke-linecap:round;stroke-linejoin:round;stroke-miterlimit:4;stroke-dasharray:none;stroke-opacity:1"
       id="rect1169-9-5"
       width="10.08959"
       height="5.2914395"
       x="42.162369"
       y="0.58578408" />
    <g
       id="g1723"
       transform="matrix(0.17189586,0,0,0.17189586,49.615851,28.29327)">
      <path
         class="fil0"
         d="m -30.031905,84.512267 c 1.667129,-3.3524 11.768259,-13.51362 14.99354,-17.03813 l 46.537849,-49.577242 16.2922,15.417753 c -4.6594,5.640136 -10.4585,11.362933 -15.5909,16.906259 -5.2985,5.72245 -10.04832,10.89293 -15.33405,16.63027 -4.32734,4.69709 -27.90226,31.32745 -30.93308,32.91587 -2.92203,-1.25361 -14.86035,-12.17595 -15.965538,-15.25442 z M -80.487436,38.544828 c 0.98,-2.127213 13.194789,-15.305733 15.227511,-16.493696 2.951409,2.773862 14.48866,12.542263 15.86692,15.225831 -1.697022,2.812547 -12.598022,15.019464 -15.56204,16.198464 L -80.487076,38.544815 Z m 25.07167,22.609009 c 1.960941,-3.66896 11.65533,-13.251387 15.09893,-16.975427 7.49877,-8.109757 43.2779398,-47.8956288 46.3595898,-49.4764478 3.84424,1.276919 12.1532502,11.42133 16.6988602,14.283195 -1.81431,3.7059768 -60.878559,66.9047998 -62.15089,67.5135198 -1.761069,-0.89389 -14.963111,-12.21798 -16.006849,-15.34483 z m -2.003599,-47.943054 c 3.087478,-4.1445258 37.08813,-40.858325 38.83321,-41.6662 l 15.8809108,15.041799 C -4.3929942,-9.9783208 -18.075694,3.8190432 -21.751635,7.8209432 -27.620326,14.20948 -35.743685,21.958072 -40.873546,28.626797 L -57.419005,13.21077 Z m -44.718305,20.480015 0.43605,10.69404 c 2.757394,7.796559 0.90129,15.100049 9.650164,31.190159 10.35459,19.0439 22.332151,29.944213 42.013741,38.735553 16.549759,7.39255 25.236411,5.15392 31.899839,7.06944 l 10.6507618,-0.43428 c 6.63427801,-2.5079 15.059098,-0.85088 31.2178382,-9.64771 18.91436,-10.29734 29.96066,-22.270823 38.72256,-42.025033 2.1012,-4.73676 3.5395,-9.30781 4.8169,-14.61655 1.2952,-5.381848 1.1672,-13.117561 2.2606,-17.25352 l -0.4361,-10.69404 c -2.787,-7.880988 -0.9183,-15.158117 -9.6511,-31.1879648 C 49.024684,-23.60459 37.222684,-34.32108 17.401884,-43.187715 0.66371381,-50.67543 -7.5681162,-48.302334 -14.469045,-50.286293 l -10.650749,0.434281 c -3.362672,1.271216 -12.116861,2.108323 -17.021482,3.667441 -13.77855,4.38122 -28.692549,13.81743 -37.41641,23.430513 -5.70924,6.291741 -11.24235,14.9344462 -15.49879,24.5778602 -7.512094,17.0193808 -4.987264,23.9457278 -7.081194,31.8669958 z"
         id="path862"
         style="clip-rule:evenodd;fill:#f3ba2f;fill-opacity:0.971962;fill-rule:evenodd;stroke-width:0.0358029;image-rendering:optimizeQuality;shape-rendering:geometricPrecision;text-rendering:geometricPrecision" />
      <path
         class="fil1"
         d="m -55.415424,61.153467 c 1.043717,3.12648 14.245778,14.45094 16.006857,15.34482 1.271961,-0.6087 60.336581,-63.807182 62.150881,-67.5135158 C 18.196704,6.1229052 9.8876838,-4.0218648 6.0434638,-5.2984238 2.9614538,-3.7175918 -32.817724,36.06828 -40.316135,44.178024 c -3.4436,3.724037 -13.137991,13.306463 -15.09893,16.975423 z"
         id="path864"
         style="clip-rule:evenodd;fill:#fefefe;fill-opacity:1;fill-rule:evenodd;stroke-width:0.0358029;image-rendering:optimizeQuality;shape-rendering:geometricPrecision;text-rendering:geometricPrecision" />
      <path
         class="fil1"
         d="m -30.031905,84.512267 c 1.10518,3.07811 13.043519,14.00082 15.965551,15.25442 3.030818,-1.58842 26.605738,-28.21877 30.933068,-32.91587 5.28573,-5.73734 10.03557,-10.90782 15.33407,-16.63027 5.1321,-5.54295 10.9315,-11.26612 15.5909,-16.906254 l -16.2922,-15.417757 -46.537859,49.577241 c -3.225639,3.52452 -13.326401,13.68609 -14.993541,17.03813 z"
         id="path866"
         style="clip-rule:evenodd;fill:#fefefe;fill-opacity:1;fill-rule:evenodd;stroke-width:0.0358029;image-rendering:optimizeQuality;shape-rendering:geometricPrecision;text-rendering:geometricPrecision" />
      <path
         class="fil1"
         d="m -57.419365,13.210783 16.545459,15.416028 c 5.129861,-6.668723 13.253231,-14.417316 19.121922,-20.8058548 3.67593,-4.001899 17.3586298,-17.799261 19.0463798,-21.2345582 l -15.8809098,-15.0418 c -1.744721,0.80786 -35.745373,37.5216592 -38.833201,41.666199 z"
         id="path868"
         style="clip-rule:evenodd;fill:#fefefe;fill-opacity:1;fill-rule:evenodd;stroke-width:0.0358029;image-rendering:optimizeQuality;shape-rendering:geometricPrecision;text-rendering:geometricPrecision" />
      <path
         class="fil1"
         d="m -80.487076,38.544815 15.532031,14.930612 c 2.964,-1.17936 13.86464,-13.38626 15.56204,-16.198464 -1.37826,-2.683568 -12.915151,-12.451982 -15.86692,-15.225831 -2.032359,1.18795 -14.247511,14.366483 -15.227511,16.493696 z"
         id="path870"
         style="clip-rule:evenodd;fill:#fefefe;fill-opacity:1;fill-rule:evenodd;stroke-width:0.0358029;image-rendering:optimizeQuality;shape-rendering:geometricPrecision;text-rendering:geometricPrecision" />
    </g>
  </g>
</svg>
