<?xml version="1.0" encoding="UTF-8"?>
<svg width="64" height="64" fill="none" version="1.1" xmlns="http://www.w3.org/2000/svg" xmlns:cc="http://creativecommons.org/ns#" xmlns:dc="http://purl.org/dc/elements/1.1/" xmlns:rdf="http://www.w3.org/1999/02/22-rdf-syntax-ns#">
 <metadata>
  <rdf:RDF>
   <cc:Work rdf:about="">
    <dc:format>image/svg+xml</dc:format>
    <dc:type rdf:resource="http://purl.org/dc/dcmitype/StillImage"/>
    <dc:title/>
   </cc:Work>
  </rdf:RDF>
 </metadata>
 <style><![CDATA[.B{fill-rule:evenodd}.C{fill:#633001}.D{fill:#fedc90}.E{fill:#d1884f}]]></style>
 <g transform="matrix(1.4139 0 0 1.4139 -59.334 -118.67)">
  <path d="m62.617 128.3c-1.461 0.0176-2.9573-0.83446-2.9277-3.2593-0.0038-3.5005 0.06693-7.2026 0.05432-10.717 0.08949-4e-3 0.36579-5e-3 0.80984-5e-3h3.9287c0.44406 0 0.79795-4.6e-4 0.79795-4.6e-4l0.0034 10.683c0.0175 1.7436-1.2055 3.2807-2.6665 3.2983z" fill="#cb6c34" stop-color="#000000" stroke="#9d5329" stroke-linejoin="round" stroke-width=".78315" style="font-variation-settings:normal"/>
  <path d="m62.381 85.703c-6.2692-4e-3 -12.462 4.8024-12.462 10.705 0 0.14701 0.0035 0.294 0.01047 0.44088v17.363c0 0.0269 3.46e-4 0.0538 0.0012 0.0806v0c8.11e-4 0.0268 2e-3 0.0534 0.0035 0.08 1e-6 2e-5 -1e-6 0 0 0 0.0031 0.0532 0.0078 0.10601 0.014 0.15846 3e-6 2e-5 -2e-6 0 0 0 0.0062 0.0524 0.01388 0.10448 0.02304 0.15611 3e-6 2e-5 -4e-6 0 0 0 0.0092 0.0516 0.01978 0.10282 0.03184 0.15356 5e-6 2e-5 -3e-6 0 0 0 6e-3 0.0254 0.01246 0.0506 0.0192 0.0758 5e-6 2e-5 -6e-6 0 0 0 0.01349 0.0503 0.02839 0.10006 0.04466 0.14936 5e-6 2e-5 -6e-6 0 0 0 0.01628 0.0493 0.03397 0.0981 0.05297 0.14638 6e-6 2e-5 -7e-6 0 0 0 0.057 0.14482 0.12606 0.28479 0.20616 0.41907 9e-6 2e-5 -1e-5 0 0 0 0.01334 0.0224 0.027 0.0446 0.04095 0.0666 1.1e-5 2e-5 -8e-6 0 0 0 0.02791 0.0441 0.05706 0.0876 0.08735 0.13034 1e-5 1e-5 -1e-5 0 0 0 0.01514 0.0214 0.03062 0.0426 0.04634 0.0636 1e-5 2e-5 -1e-5 0 0 0 0.01572 0.021 0.03178 0.0419 0.04807 0.0626 9e-6 1e-5 -1e-5 0 0 0 0.03259 0.0414 0.06634 0.082 0.10116 0.12197 1e-5 2e-5 -1e-5 0 0 0 0.01741 0.02 0.03514 0.0397 0.05309 0.0593 1.1e-5 2e-5 -1e-5 0 0 0 0.03591 0.0392 0.07292 0.0775 0.11095 0.11516 0.01903 0.0188 0.03831 0.0375 0.05786 0.0559 0.07814 0.0737 0.16036 0.14408 0.24636 0.211 0.08601 0.0669 0.17576 0.13033 0.26904 0.18999 0.06995 0.0447 0.14189 0.0874 0.21564 0.1278 0.04914 0.0269 0.09912 0.0529 0.14985 0.0778 2.4e-5 1e-5 3e-5 0 6.1e-5 0 0.05073 0.0249 0.10225 0.0488 0.1545 0.0717 2.6e-5 1e-5 3.1e-5 0 6.1e-5 0 0.05225 0.0229 0.10527 0.0446 0.15896 0.0654 2.5e-5 1e-5 3e-5 0 6.1e-5 0 0.02683 0.0104 0.05385 0.0204 0.08103 0.0302 2.6e-5 1e-5 3.1e-5 0 6.1e-5 0 0.05441 0.0196 0.10948 0.0382 0.16522 0.0556 0.11148 0.0348 0.22554 0.0651 0.34189 0.0906 0.08726 0.0191 0.17581 0.0356 0.26551 0.0492 0.0598 9e-3 0.1201 0.017 0.18089 0.0235 0.05865 6e-3 0.11779 0.0114 0.1773 0.0154 0.0022 0 0.0043 3.3e-4 0.0064 4.6e-4 2.1e-5 0 3.1e-5 -1e-5 6.1e-5 0 0.09255 6e-3 0.1861 9e-3 0.2805 9e-3h0.84057c-0.01974 0.0202-0.03893 0.0424-0.05755 0.0664-1e-5 1e-5 1e-5 0 0 0-0.01861 0.024-0.03667 0.0499-0.05414 0.0774-1e-5 1e-5 1e-5 0 0 0-0.02621 0.0412-0.05116 0.086-0.07477 0.13362-8e-6 1e-5 1e-5 0 0 0-0.07085 0.14287-0.12993 0.311-0.17649 0.483-0.01034 0.0382-0.02007 0.0766-0.02918 0.11498-5e-6 1e-5 4e-6 0 0 0-0.0017 7e-3 -3e-3 0.0139-0.0046 0.0208-0.01615 0.0697-0.03053 0.13924-0.0425 0.20703-0.0066 0.0373-0.01249 0.074-0.01778 0.11001-0.0053 0.036-0.0099 0.0713-0.01394 0.10562-8e-3 0.0686-0.01335 0.13323-0.01604 0.1921-0.0013 0.0294-2e-3 0.0575-2e-3 0.0838 0 0.0309 9.24e-4 0.0619 0.0027 0.0929 0.0054 0.093 0.01887 0.18631 0.03977 0.27896 0.01393 0.0618 0.03117 0.12325 0.05154 0.18416 0.01019 0.0305 0.02117 0.0607 0.03289 0.0909 7e-6 2e-5 -7e-6 0 0 0 0.03518 0.0904 0.07722 0.17924 0.12551 0.26557 0.0483 0.0864 0.10282 0.1702 0.16305 0.25064 0.04015 0.0536 0.08285 0.10575 0.12786 0.15605 0.11252 0.12577 0.23967 0.2403 0.37875 0.33935 0.02781 0.0198 0.05606 0.039 0.08481 0.0575 0.17249 0.11123 0.36132 0.19888 0.5618 0.2556 0.16705 0.0473 0.34218 0.073 0.52265 0.073 0.18047 0 0.3556-0.0258 0.52265-0.073 0.03341-9e-3 0.0665-0.0198 0.09924-0.0309 0.06547-0.0223 0.12956-0.0478 0.1921-0.0764 0.03128-0.0143 0.0622-0.0294 0.09267-0.0452 0.06094-0.0316 0.12025-0.066 0.17773-0.10309 1.5e-5 0 6.1e-5 1e-5 6.1e-5 0 0.08624-0.0556 0.16834-0.11709 0.24581-0.18355 0.05165-0.0443 0.10118-0.0908 0.14849-0.13925 0.07097-0.0727 0.13689-0.14963 0.19712-0.23008 1e-5 -1e-5 -1e-5 0 0 0 0.02006-0.0268 0.03951-0.0539 0.05829-0.0815 9e-6 -1e-5 -1e-5 0 0 0 0.01878-0.0275 0.03693-0.0554 0.05439-0.0836 1.1e-5 -1e-5 -9e-6 0 0 0 0.03493-0.0564 0.06721-0.11397 0.09658-0.17258 0.01469-0.0293 0.02864-0.0589 0.04188-0.0886 0.01323-0.0298 0.02569-0.0597 0.03742-0.0898s0.02271-0.0605 0.03289-0.0909c0.02036-0.0609 0.03761-0.12236 0.05154-0.1841 4e-6 -3e-5 -5e-6 0 0 0 7e-3 -0.0309 0.01311-0.0618 0.0184-0.0928 0.01058-0.062 0.01776-0.12414 0.02137-0.18616 0.0018-0.031 0.0027-0.0619 0.0027-0.0929 0-0.0526-0.0027-0.11198-8e-3 -0.17617-5e-3 -0.0605-0.01262-0.12546-0.0223-0.19297-0.0057-0.04-0.01211-0.0807-0.01945-0.12234-0.04603-0.2609-0.12334-0.54681-0.22945-0.77739-0.01516-0.0329-0.03094-0.0648-0.04727-0.0952-0.0082-0.0152-0.01645-0.0301-0.0249-0.0446-0.03381-0.0581-0.06993-0.11017-0.10828-0.15449-0.0096-0.0111-0.01931-0.0217-0.02918-0.0318h9.7748c0.01446 0.0236 0.02794 0.0491 0.04045 0.0762 0.0063 0.0136 0.01225 0.0275 0.01803 0.0419 1e-5 2e-5 0 0 0 0 0.01154 0.0287 0.02213 0.0589 0.03178 0.0903 6e-6 1e-5 -6e-6 0 0 0 0.0048 0.0157 0.0095 0.0318 0.01381 0.0481 7e-6 1e-5 -4e-6 0 0 0 0.0044 0.0163 0.0085 0.0329 0.01239 0.0497 6.95e-4 3e-3 0.0012 6e-3 0.0019 9e-3 0.0097 0.043 0.01765 0.0877 0.02441 0.13325 8.1e-4 5e-3 0.0019 0.0101 0.0026 0.0153 0 2e-5 -3e-6 0 0 0 0.01521 0.10843 0.02235 0.22239 0.02187 0.33494v0c-4.62e-4 0.11256-0.0086 0.22372-0.02391 0.32653-4e-6 2e-5 3e-6 0 0 0-0.0051 0.0343-0.01099 0.0676-0.01765 0.0997-6e-6 2e-5 3e-6 0 0 0-0.0033 0.0161-0.0069 0.0318-0.01059 0.0473-6e-6 2e-5 4e-6 0 0 0-0.01117 0.0464-0.02407 0.0898-0.03866 0.12935-9e-6 2e-5 0 0 0 0-0.0049 0.0132-0.0099 0.026-0.01512 0.0383-0.01571 0.037-0.03306 0.0698-0.05204 0.0977-0.0081 0.0113-0.01846 0.025-0.03091 0.041-2.2e-5 2e-5 0 0 0 0-0.01244 0.016-0.02688 0.0341-0.04305 0.0544-1.9e-5 2e-5 0 0 0 0-0.04152 0.052-0.09491 0.11858-0.15338 0.19451-0.0099 0.0129-0.01938 0.0249-0.02961 0.0384-9e-6 1e-5 1e-5 0 0 0-0.02349 0.031-0.04774 0.0634-0.07235 0.0972-1.3e-5 1e-5 9e-6 0 0 0-0.01022 0.014-0.0207 0.0292-0.03104 0.0437-0.06437 0.0902-0.13031 0.18791-0.19259 0.29184-0.06024 0.10051-0.11687 0.20599-0.16478 0.31364-0.02874 0.0646-0.05433 0.12996-0.0757 0.1955-0.02136 0.0655-0.03851 0.13122-0.0503 0.1965-0.0039 0.0218-0.0073 0.0435-0.01 0.0651-0.0054 0.0433-0.0082 0.0863-0.0082 0.12885 0 0.0634 0.0036 0.12656 0.01065 0.18925 0.0071 0.0627 0.01758 0.12493 0.03135 0.18646 0.0069 0.0308 0.01461 0.0613 0.02311 0.0917 0.017 0.0608 0.03715 0.12078 0.06034 0.17977 0.02319 0.059 0.04939 0.11695 0.07842 0.1737 0.02904 0.0568 0.06093 0.11231 0.09546 0.1664 0.03454 0.0541 0.07175 0.10673 0.11144 0.15771 0.07938 0.10197 0.1687 0.19731 0.26662 0.28428 0.02448 0.0217 0.04949 0.043 0.07502 0.0636 0.15319 0.12404 0.3249 0.22824 0.51045 0.30689 0.03092 0.0131 0.06218 0.0255 0.09385 0.0372 0.06335 0.0233 0.12812 0.0437 0.1942 0.0609 0.06607 0.0172 0.13344 0.0312 0.20189 0.0419 0.10267 0.016 0.20782 0.0243 0.31488 0.0243 0.03627 0 0.07235-8.3e-4 0.10816-2e-3 0.03583-2e-3 0.07147-4e-3 0.1068-7e-3 0.21196-0.0194 0.41441-0.0673 0.60244-0.13932 0.09191-0.0352 0.18038-0.0781 0.26483-0.1278 0.02111-0.0124 0.04202-0.0252 0.06263-0.0385 0.06181-0.0397 0.12128-0.0831 0.17816-0.12966 0.03792-0.031 0.07471-0.0636 0.11027-0.0974 0.03555-0.0338 0.06985-0.0688 0.10289-0.10512 1e-5 -1e-5 -9e-6 0 0 0 0.01652-0.0181 0.0327-0.0365 0.04857-0.0553 0.01587-0.0187 0.03138-0.0377 0.04659-0.057 0.01518-0.0192 0.03005-0.0387 0.04454-0.0585 9e-6 -1e-5 -1e-5 0 0 0 0.01449-0.0198 0.02865-0.0397 0.04243-0.06 9e-6 -1e-5 -9e-6 0 0 0 0.01379-0.0203 0.02726-0.0407 0.04033-0.0614s0.02571-0.0416 0.03804-0.0627c0.01231-0.0211 0.02426-0.0424 0.03581-0.0639 9e-6 -2e-5 -9e-6 0 0 0 0.01155-0.0215 0.02274-0.0431 0.03351-0.065 0.02156-0.0437 0.04152-0.0881 0.05984-0.13306 0.0092-0.0225 0.01788-0.0451 0.0262-0.0678 0.01665-0.0455 0.03165-0.0914 0.04485-0.13771 0.0066-0.0232 0.01275-0.0464 0.01846-0.0697 0.01143-0.0466 0.02105-0.0936 0.02881-0.14069 0.0039-0.0236 0.0073-0.0471 0.01022-0.0707 0.0088-0.0709 0.01332-0.14197 0.01332-0.21291 0-0.17429-0.03219-0.35653-0.08598-0.53449-6e-3 -0.0198-0.01221-0.0395-0.01871-0.0591-0.01299-0.0393-0.02698-0.0783-0.04188-0.11695-0.01488-0.0386-0.03065-0.0768-0.0472-0.11442-0.04966-0.11295-0.10625-0.22093-0.1667-0.32039-0.02015-0.0332-0.04076-0.0653-0.06164-0.0965-0.02088-0.0311-0.04205-0.0611-0.06343-0.09-0.06414-0.0864-0.12996-0.16187-0.19439-0.2227-0.02148-0.0203-0.04283-0.0389-0.06387-0.0558-0.05504-0.0524-0.0999-0.11038-0.13585-0.17259-9e-3 -0.0155-0.01745-0.0313-0.02533-0.0474-0.02365-0.0482-0.04242-0.0984-0.05681-0.15022-0.0096-0.0345-0.01721-0.0698-0.02304-0.1055-0.0058-0.0357-0.0098-0.0719-0.0122-0.10847-0.0036-0.0548-0.0034-0.11028 0-0.16583 0.0023-0.037 6e-3 -0.0741 0.01103-0.11101 0.0075-0.0554 0.01801-0.11045 0.03091-0.16453 0.0086-0.0361 0.01831-0.0717 0.02893-0.10668 0.02124-0.07 0.04621-0.13764 0.07378-0.20133 0.04135-0.0955 0.08851-0.18228 0.13759-0.25523h1.4323c0.09442 0 0.18799-3e-3 0.28056-9e-3 0.06171-4e-3 0.12294-9e-3 0.18373-0.0159 0.06079-7e-3 0.12115-0.0144 0.18095-0.0235 0.0897-0.0136 0.17825-0.0301 0.26551-0.0492 0.11634-0.0255 0.23041-0.0558 0.34189-0.0906 0.16722-0.0522 0.32861-0.11466 0.48319-0.1864 0.07729-0.0359 0.15285-0.0741 0.2266-0.11448 0.07375-0.0404 0.14568-0.0831 0.21564-0.12779 0.09326-0.0596 0.18304-0.12309 0.26904-0.19 0.08601-0.0669 0.16829-0.13734 0.24643-0.21099 0.01955-0.0184 0.03877-0.0371 0.0578-0.0559 0.20922-0.20696 0.38698-0.4379 0.52705-0.68756 0.02547-0.0454 0.04967-0.0914 0.0726-0.13802 0.0688-0.13977 0.1261-0.28482 0.17079-0.43425 2e-6 -2e-5 -7e-6 0 0 0 0.05213-0.17435 0.08719-0.35468 0.10351-0.53963 4e-6 -2e-5 0 0 0 0 7e-3 -0.0793 0.01054-0.15937 0.01054-0.24023l-3.46e-4 -4.9323-0.0012-13.193c-0.05983-5.3682-5.9888-10.218-12.341-10.378-0.09953-0.0025-0.19908-0.0038-0.29859-0.0039z" fill="#f0f" stop-color="#000000" style="font-variation-settings:normal"/>
  <path d="m62.381 85.137c-0.01594 3e-5 -0.03188 7.28e-4 -0.04776 0.0021-3.2631 0.01002-6.4743 1.2524-8.8965 3.2666-2.4341 2.0241-4.0845 4.8536-4.0845 8.0031 0 0.14705 4e-3 0.29411 0.01054 0.44088v15.864l1.1335-0.0973v-15.766c-1.8e-5 -0.0089-2.45e-4 -0.01781-6.95e-4 -0.0267-0.0065-0.13805-0.0099-0.2762-0.0099-0.41418 2e-6 -2.7532 1.4463-5.2778 3.6757-7.1317 2.2294-1.8538 5.2293-3.0086 8.219-3.0068 0.09478 6.1e-5 0.18969 0.0013 0.28471 0.0037 3.0362 0.07633 5.9956 1.2828 8.1813 3.1049 1.8785 1.566 3.1583 3.5704 3.5004 5.6761l0.10785 15.506 1.1335-0.0973-0.09342-15.507c-0.3732-2.4607-1.8528-4.7227-3.9227-6.4482-2.3817-1.9854-5.5627-3.2839-8.8783-3.3673-0.10403-0.0026-0.20834-0.0041-0.31259-0.0042zm-0.34198 5.6663c-0.34485-6.1e-5 -0.62442 0.18667-0.62431 0.417v22.185c6.2e-5 0.23025 0.27959 0.41686 0.62431 0.41679 0.3446 0 0.62394-0.18663 0.624-0.41679v-22.185c1.23e-4 -0.23025-0.27927-0.41696-0.624-0.417zm7.0453-0.47804c-0.02754-1.22e-4 -0.05507 0.0012-0.08239 0.0038-0.34197 0.03332-0.58444 0.27562-0.54161 0.54124 0 0 0.03736 0.2347 0.1247 0.50723 0.08282 0.2584 0.146 0.55598 0.49471 0.83097 0.0045 6e-3 0.0092 0.0129 0.01295 0.02162 0.0202 0.04701 0.04533 0.12989 0.06139 0.22772 0.03212 0.19566 0.02843 0.45399-0.03884 0.68167-0.06727 0.22768-0.19145 0.41581-0.36574 0.53671-0.17429 0.1209-0.4081 0.20768-0.87117 0.19173-0.64691-0.02229-0.89792-0.15424-1.0317-0.28595-0.13376-0.13171-0.19344-0.33913-0.16633-0.61526 0.05422-0.55228 0.46489-1.2161 0.5675-1.3775 0.23803-0.37438 0.24754-0.7225 0.24754-0.7225 0.0037-0.26767-0.27262-0.48701-0.61724-0.48994-0.34463-0.0029-0.62703 0.21174-0.63081 0.47941 0 0 0.0028 0.11249-0.11882 0.30373-0.07719 0.12141-0.61064 0.89368-0.69307 1.7332-0.04121 0.41978 0.03274 0.89706 0.43109 1.2893 0.39835 0.39226 1.0778 0.62365 1.9566 0.65392 0.72018 0.02481 1.3353-0.14388 1.7578-0.43698 0.42252-0.2931 0.64285-0.67759 0.75081-1.043 0.10796-0.36536 0.10989-0.72064 0.06052-1.0213-0.02468-0.15035-0.06159-0.28653-0.11541-0.41183-0.05382-0.12529-0.09016-0.23854-0.29258-0.38327 0.05502 0.03934-0.12101-0.18779-0.18795-0.39665-0.06694-0.20886-0.0975-0.39337-0.0975-0.39337-0.03872-0.24123-0.30148-0.42288-0.61446-0.42478zm-14.374 1.2539c-0.31935 0.0035-0.58376 0.19371-0.61272 0.44076 0 0-0.0077 0.06321-0.01945 0.13666-0.01042 0.06502-0.02989 0.13244-0.0241 0.1239-0.01584 0.02431-0.03741 0.05741-0.0648 0.10023-0.05897 0.0922-0.1384 0.22024-0.2219 0.37292-0.167 0.30537-0.3543 0.7079-0.4314 1.1494-0.0771 0.44147-0.04753 0.94709 0.32678 1.3859 0.3743 0.4388 1.0698 0.72884 2.0023 0.80036 0.94854 0.07275 1.7283-0.16022 2.1488-0.59829 0.42053-0.43807 0.48284-0.96654 0.45054-1.4501-0.0646-0.96718-0.56447-1.8857-0.56447-1.8857-0.13026-0.24776-0.49437-0.36667-0.81343-0.26563-0.3192 0.10118-0.4723 0.38422-0.34195 0.63211 0 0 0.42469 0.84019 0.4734 1.5695 0.02436 0.36466-0.05953 0.66879-0.20492 0.82025-0.14539 0.15146-0.35125 0.26479-1.0252 0.2131-0.68999-0.05292-0.94579-0.20851-1.0845-0.37107-0.13867-0.16256-0.1837-0.41398-0.13021-0.72026 0.05349-0.30628 0.20191-0.64205 0.34313-0.90028 0.07061-0.12912 0.13855-0.23911 0.19074-0.3207 0.02609-0.0408 0.04794-0.07434 0.06604-0.10215 0.01809-0.02782 0.0104 0.02074 0.0682-0.12129 0.05671-0.13936 0.06093-0.22093 0.07557-0.31234 0.01465-0.09141 0.02379-0.1685 0.02379-0.1685 0.03132-0.26667-0.22168-0.50255-0.56502-0.5268-0.01755-0.0012-0.03516-0.0019-0.05278-0.0019-0.0042-3e-5 -0.0083-3e-5 -0.01251 0zm14.355 0.61396c3.46e-4 -7.99e-4 0.0065 0.0047 0.01369 0.01381-0.0098-0.0085-0.01386-0.01318-0.01369-0.01381zm6.5232 18.271-1.1335 0.0973 3.46e-4 3.6514c0 1.3698-1.3155 2.5472-3.0693 2.5472h-1.4322c-0.18859 1e-5 -0.36481 0.0938-0.47012 0.25027-0.19017 0.28267-0.33093 0.63634-0.37156 1.0433-0.04063 0.40693 0.04237 0.911 0.42211 1.2723 0.01143 0.011 0.02332 0.0214 0.03562 0.0314 0.06378 0.0512 0.23063 0.25144 0.34511 0.48325 0.11448 0.23181 0.18684 0.49937 0.18684 0.68508-4e-6 0.49965-0.39332 1.0972-0.88622 1.2858-0.18613 0.0713-0.39345 0.11169-0.61458 0.11169-0.82787-1e-5 -1.501-0.72755-1.5011-1.3975 6e-6 -0.13683 0.11852-0.44277 0.29128-0.70918 0.17276-0.2664 0.33523-0.43969 0.46572-0.62307 0.0023-3e-3 0.0045-7e-3 0.0068-0.01 0.23982-0.35247 0.25454-0.68673 0.25616-1.0552 0.0016-0.36848-0.03067-0.73884-0.25077-1.0978-0.10309-0.16803-0.28599-0.27042-0.48305-0.27045h-9.7751c-0.50196 0-0.75599 0.60455-0.40483 0.96323 0.01969 0.0201 0.1509 0.25376 0.22078 0.512 0.06988 0.25823 0.1063 0.55348 0.1063 0.68625-1.4e-5 0.63153-0.71491 1.4781-1.5247 1.4781-0.80972-1e-5 -1.5247-0.84656-1.5247-1.4781 1e-6 -0.13277 0.03666-0.42802 0.10655-0.68625 0.06989-0.25824 0.20109-0.4919 0.22078-0.512 0.35125-0.35876 0.097-0.96332-0.40508-0.96323h-0.8405c-1.7538 0-3.069-1.1774-3.069-2.5472v-1.5965l-1.1335 0.0973v1.4992c0 2.0638 1.8989 3.6511 4.1502 3.6759-0.0047 0.017-0.0125 0.0333-0.0171 0.0503-0.09564 0.35336-0.14563 0.69428-0.14564 0.98242 2.6e-5 1.3467 1.1577 2.6115 2.6579 2.6115 1.5003 2e-5 2.658-1.2648 2.658-2.6115 6e-6 -0.28814-0.04996-0.62906-0.14558-0.98242-0.0042-0.0155-0.01122-0.0304-0.01549-0.0458h8.4423c0.01773 0.09 0.03912 0.1233 0.03866 0.22988-9.24e-4 0.21619-0.08459 0.44378-0.0656 0.42911-0.01992 0.0233-0.2644 0.31394-0.48065 0.64742-0.22603 0.34854-0.47382 0.78217-0.47384 1.3259 9e-6 1.3593 1.1782 2.5307 2.6342 2.5308 0.3595 1e-5 0.70479-0.066 1.0201-0.18665 0.97798-0.37436 1.6143-1.3304 1.6144-2.3441 3e-6 -0.43392-0.13085-0.83623-0.3041-1.187-0.16675-0.33769-0.36338-0.62334-0.62127-0.83976-0.05681-0.0581-0.0878-0.15307-0.06988-0.3326 0.0087-0.0869 0.0359-0.18345 0.06765-0.27293h1.0784c2.2747 0 4.2028-1.6002 4.2027-3.6804zm-6.3888-14.224c-0.34472 3.1e-5 -0.6241 0.16326-0.624 0.36456v17.341c0 0.20122 0.27941 0.36433 0.624 0.36437 0.34471 0 0.62424-0.16308 0.62431-0.36437v-17.341c0-0.20137-0.27947-0.36462-0.62431-0.36456zm-13.8 1.9001c-0.34475-6.1e-5 -0.62429 0.16312-0.62431 0.36444v15.266c6.1e-5 0.20129 0.2796 0.36444 0.62431 0.36438 0.34459 0 0.62392-0.16316 0.624-0.36438v-15.266c-1.6e-5 -0.20125-0.27936-0.3644-0.624-0.36444z" color="#000000" color-rendering="auto" dominant-baseline="auto" fill="#cd00cd" image-rendering="auto" shape-rendering="auto" solid-color="#000000" stop-color="#000000" style="font-feature-settings:normal;font-variant-alternates:normal;font-variant-caps:normal;font-variant-east-asian:normal;font-variant-ligatures:normal;font-variant-numeric:normal;font-variant-position:normal;font-variation-settings:normal;inline-size:0;isolation:auto;mix-blend-mode:normal;shape-margin:0;shape-padding:0;text-decoration-color:#000000;text-decoration-line:none;text-decoration-style:solid;text-indent:0;text-orientation:mixed;text-transform:none;white-space:normal"/>
 </g>
</svg>
