<?xml version="1.0" encoding="UTF-8"?>
<svg width="64" height="64" fill="none" version="1.1" xmlns="http://www.w3.org/2000/svg" xmlns:cc="http://creativecommons.org/ns#" xmlns:dc="http://purl.org/dc/elements/1.1/" xmlns:rdf="http://www.w3.org/1999/02/22-rdf-syntax-ns#">
 <metadata>
  <rdf:RDF>
   <cc:Work rdf:about="">
    <dc:format>image/svg+xml</dc:format>
    <dc:type rdf:resource="http://purl.org/dc/dcmitype/StillImage"/>
    <dc:title/>
   </cc:Work>
  </rdf:RDF>
 </metadata>
 <path d="M64 32c0 17.673-14.327 32-32 32S0 49.673 0 32 14.327 0 32 0s32 14.327 32 32z" fill="#e9eaeb"/>
 <mask id="A" x="3" y="3" width="58" height="58" mask-type="alpha" maskUnits="userSpaceOnUse">
  <path d="M60.667 32c0 15.832-12.834 28.667-28.667 28.667S3.333 47.832 3.333 32 16.168 3.333 32 3.333 60.667 16.168 60.667 32z" fill="#c4c4c4"/>
 </mask>
 <g fill="#bdc2c4">
  <path d="m30.242 23.064v-0.6c0-0.844 0.17-1.55 0.506-2.12 0.36-0.57 0.834-1.13 1.424-1.678a14.95 14.95 0 0 1 1.614-1.361c0.528-0.38 0.96-0.78 1.298-1.203a2.31 2.31 0 0 0 0.507-1.488c0-0.823-0.295-1.403-0.886-1.74-0.57-0.36-1.53-0.538-2.88-0.538a10.1 10.1 0 0 0-2.627 0.348c-0.865 0.21-1.604 0.485-2.216 0.823v-4.277c0.78-0.38 1.7-0.686 2.754-0.918 1.076-0.232 2.248-0.348 3.514-0.348 2.448 0 4.316 0.538 5.603 1.614 1.287 1.055 1.93 2.51 1.93 4.368 0 1.182-0.243 2.142-0.728 2.88-0.485 0.718-1.192 1.456-2.12 2.216l-1.963 1.7c-0.528 0.464-0.79 1.097-0.79 1.9v0.412h-4.938zm-0.222 5.603v-3.672h5.35v3.672z"/>
  <path d="M63.986 32.97l-2-.06L62 32l-.014-.91 2-.06L64 32l-.014.97zm-.115-3.867l-1.992.18-.216-1.8 1.978-.298.23 1.918zm-.577-3.82l-1.956.418-.432-1.76 1.927-.536.46 1.878zm-1.036-3.724l-1.89.652-.642-1.693 1.847-.766.686 1.807zm-1.48-3.57l-1.798.877-.843-1.604 1.74-.984.9 1.71zm-1.902-3.365l-1.678 1.087-1.03-1.49 1.6-1.187 1.1 1.6zm-2.293-3.11l-1.536 1.28-1.203-1.357 1.456-1.37 1.282 1.447zM53.934 8.7l-1.37 1.456-1.357-1.203 1.28-1.536L53.934 8.7zm-2.968-2.476l-1.187 1.6-1.49-1.03 1.087-1.68 1.6 1.1zm-3.243-2.1l-.984 1.74-1.604-.844.877-1.798 1.71.9zM44.25 2.428l-.766 1.847-1.693-.643.652-1.89 1.807.686zm-3.653-1.26l-.536 1.927-1.76-.432.418-1.956 1.878.46zM36.816.36l-.3 1.978-1.8-.216.18-1.992 1.918.23zM32.97.014L32 0l-.97.014.06 2L32 2l.91.014.06-2zM29.102.13l.18 1.992-1.8.216L27.184.36l1.918-.23zm-3.82.577l.418 1.956-1.76.432-.536-1.927 1.878-.46zm-3.724 1.036l.652 1.89-1.693.643-.766-1.847 1.807-.686zm-3.57 1.48l.877 1.798-1.604.844-.984-1.74 1.71-.9zm-3.365 1.902l1.087 1.68-1.49 1.03-1.187-1.6 1.6-1.1zm-3.11 2.293l1.28 1.536-1.357 1.203-1.37-1.456 1.447-1.282zM8.7 10.066l1.456 1.37-1.203 1.357-1.536-1.28L8.7 10.066zm-2.476 2.968l1.6 1.187-1.03 1.49-1.68-1.087 1.1-1.6zm-2.1 3.243l1.74.984-.844 1.604-1.798-.877.9-1.71zM2.428 19.75l1.847.766-.643 1.693-1.89-.652.686-1.807zm-1.26 3.653l1.927.536-.432 1.76-1.956-.418.46-1.878zm-.808 3.78l1.978.298-.216 1.8-1.992-.18.23-1.918zM.014 31.03L0 32l.014.97 2-.06L2 32l.014-.91-2-.06zm.115 3.867l1.992-.18.216 1.8-1.978.3-.23-1.918zm.577 3.82l1.956-.418.432 1.76-1.927.536-.46-1.878zm1.036 3.723l1.89-.652.643 1.693-1.847.766-.686-1.807zm1.48 3.57l1.798-.877.844 1.604-1.74.984-.9-1.71zm1.902 3.365l1.68-1.087 1.03 1.49-1.6 1.187-1.1-1.6zm2.293 3.11l1.536-1.28 1.203 1.357-1.456 1.37-1.282-1.447zm2.65 2.814l1.37-1.456 1.357 1.203-1.28 1.536-1.447-1.282zm2.968 2.476l1.187-1.6 1.49 1.03-1.087 1.678-1.6-1.1zm3.243 2.1l.984-1.74 1.604.843-.877 1.798-1.71-.9zm3.474 1.694l.766-1.847 1.693.642-.652 1.89-1.807-.686zm3.653 1.26l.536-1.927 1.76.432-.418 1.956-1.878-.46zm3.78.808l.298-1.978 1.8.216-.18 1.992-1.918-.23zm3.847.346l.06-2L32 62l.91-.014.06 2L32 64c-.324 0-.647-.005-.97-.014zm3.867-.115l-.18-1.992 1.8-.216.3 1.978-1.918.23zm3.82-.577l-.418-1.956 1.76-.432.536 1.927-1.878.46zm3.723-1.036l-.652-1.89 1.693-.642.766 1.847-1.807.686zm3.57-1.48l-.877-1.798 1.604-.843.984 1.74-1.71.9zm3.365-1.902l-1.087-1.678 1.49-1.03 1.187 1.6-1.6 1.1zm3.11-2.293l-1.28-1.536 1.357-1.203 1.37 1.456-1.447 1.282zm2.814-2.65l-1.456-1.37 1.203-1.357 1.536 1.28-1.282 1.447zm2.476-2.968l-1.6-1.187 1.03-1.49 1.678 1.087-1.1 1.6zm2.1-3.243l-1.74-.984.843-1.604 1.798.877-.9 1.71zm1.694-3.474l-1.847-.766.642-1.693 1.89.652-.686 1.807zm1.26-3.653l-1.927-.536.432-1.76 1.956.418-.46 1.878zm.808-3.78l-1.978-.3.216-1.8 1.992.18-.23 1.918z" fill-rule="evenodd"/>
  <path d="m32.877 30.463c-0.03103 6e-5 -0.060867 0.001106-0.091797 0.003906-6.3538 0.01951-12.608 2.4393-17.324 6.3613-4.6825 3.8937-7.8689 9.3176-7.9453 15.361a31.748 31.748 0 0 0 2.2207 2.4219v-1.3418c-3.45e-5 -0.01744-0.0010785-0.035414-0.0019531-0.052734-0.01264-0.26882-0.019531-0.53796-0.019531-0.80664 4.3e-6 -5.361 2.8171-10.277 7.1582-13.887 4.3411-3.6098 10.182-5.8572 16.004-5.8535 0.18454 1.19e-4 0.36771 0.001159 0.55274 0.005859 5.9122 0.14862 11.676 2.4989 15.932 6.0469 3.6578 3.0493 6.1503 6.9525 6.8164 11.053l0.019532 2.7246a31.748 31.748 0 0 0 2.2109-2.9375c-0.73214-4.7831-3.6105-9.1804-7.6348-12.535-4.6376-3.8661-10.831-6.3943-17.287-6.5566-0.20256-5e-3 -0.40639-0.007512-0.60938-0.007812zm13.053 10.102c-0.053621-2.41e-4 -0.10696 0.002413-0.16016 0.007813-0.66588 0.06487-1.1381 0.53748-1.0547 1.0547 0 0 0.074056 0.45567 0.24414 0.98633 0.16126 0.50317 0.28388 1.0837 0.96289 1.6191 0.0088 0.01164 0.018101 0.024056 0.025391 0.041016 0.03931 0.09154 0.087884 0.25287 0.11914 0.44336 0.06254 0.38099 0.054808 0.88479-0.076172 1.3281-0.13098 0.44334-0.37352 0.80949-0.71289 1.0449-0.33938 0.23542-0.79362 0.40411-1.6953 0.37305-1.2597-0.04341-1.7493-0.30017-2.0098-0.55664-0.26045-0.25647-0.37505-0.65958-0.32227-1.1973 0.10559-1.0754 0.9037-2.3693 1.1035-2.6836 0.46349-0.72898 0.48242-1.4062 0.48242-1.4062 0.0073-0.52121-0.53013-0.94741-1.2012-0.95312-0.67106-0.0057-1.2211 0.41238-1.2285 0.93359 0 0 0.004435 0.21746-0.23242 0.58984-0.1503 0.2364-1.1891 1.7402-1.3496 3.375-0.08024 0.81739 0.064177 1.7479 0.83984 2.5117 0.77566 0.7638 2.0995 1.2145 3.8105 1.2734 1.4023 0.04832 2.5992-0.28084 3.4219-0.85156 0.82272-0.57072 1.2527-1.3198 1.4629-2.0312 0.2102-0.71143 0.21334-1.4028 0.11719-1.9883-0.048059-0.29276-0.1198-0.55876-0.22461-0.80274-0.10478-0.24397-0.17617-0.46428-0.57031-0.74609 0.10714 0.07659-0.2349-0.36479-0.36524-0.77148-0.13035-0.40669-0.18945-0.76562-0.18945-0.76562-0.0754-0.46972-0.58785-0.82443-1.1973-0.82812zm-13.719 0.93164c-0.67149-1.19e-4 -1.2151 0.364-1.2148 0.8125v21.387a31.748 31.748 0 0 0 0.98828 0.015626 31.748 31.748 0 0 0 1.4434-0.033204v-21.369c2.39e-4 -0.44835-0.54554-0.81241-1.2168-0.8125zm-14.27 1.5098c-0.62184 0.0069-1.137 0.37833-1.1934 0.85938 0 0-0.016103 0.12262-0.039063 0.26562-0.0202 0.1266-0.058165 0.25687-0.046875 0.24024-0.03085 0.04733-0.071678 0.11196-0.125 0.19531-0.11481 0.17954-0.26905 0.42925-0.43164 0.72656-0.32518 0.59462-0.68972 1.3786-0.83984 2.2383-0.15013 0.85964-0.094079 1.8448 0.63477 2.6992 0.72884 0.85444 2.0847 1.4193 3.9004 1.5586 1.847 0.14167 3.3647-0.31301 4.1836-1.166 0.81886-0.853 0.93984-1.8806 0.87695-2.8223-0.1258-1.8833-1.0996-3.6719-1.0996-3.6719-0.25363-0.48245-0.96271-0.71432-1.584-0.51758-0.62154 0.19703-0.91984 0.74777-0.66602 1.2305 0 0 0.82702 1.6365 0.92188 3.0566 0.04744 0.71006-0.11533 1.3008-0.39844 1.5957-0.28311 0.29491-0.68383 0.51667-1.9961 0.41602-1.3436-0.10306-1.8413-0.40612-2.1113-0.72266-0.27001-0.31654-0.35806-0.80595-0.25391-1.4023 0.10415-0.59639 0.39299-1.2511 0.66797-1.7539 0.13749-0.25142 0.26947-0.46417 0.37109-0.62305 0.05082-0.07945 0.09369-0.14505 0.12891-0.19922 0.03521-0.05417 0.020204 0.040233 0.13281-0.23633 0.11043-0.27136 0.11796-0.43138 0.14648-0.60938 0.02853-0.17798 0.046875-0.32812 0.046875-0.32812 0.06096-0.51926-0.43105-0.97817-1.0996-1.0254-0.03417-0.0023-0.069197-0.003607-0.10352-0.003907-8e-3 -5.9e-5 -0.015358-5.9e-5 -0.023438 0zm28.213 9.0762c-0.67123 5.8e-5 -1.215 0.31898-1.2148 0.71094v8.1543a31.748 31.748 0 0 0 2.4297-1.2148v-6.9395c0-0.3921-0.54337-0.71105-1.2148-0.71094zm-26.873 3.6992c-0.67131-1.19e-4 -1.2148 0.31893-1.2148 0.71094v4.0039a31.748 31.748 0 0 0 2.4316 1.0645v-5.0684c-3.2e-5 -0.39187-0.54573-0.71086-1.2168-0.71094z" color="#000000" color-rendering="auto" dominant-baseline="auto" image-rendering="auto" shape-rendering="auto" solid-color="#000000" stop-color="#000000" style="font-feature-settings:normal;font-variant-alternates:normal;font-variant-caps:normal;font-variant-east-asian:normal;font-variant-ligatures:normal;font-variant-numeric:normal;font-variant-position:normal;font-variation-settings:normal;inline-size:0;isolation:auto;mix-blend-mode:normal;shape-margin:0;shape-padding:0;text-decoration-color:#000000;text-decoration-line:none;text-decoration-style:solid;text-indent:0;text-orientation:mixed;text-transform:none;white-space:normal"/>
 </g>
</svg>
