<?xml version="1.0" encoding="UTF-8"?>
<svg width="193" height="230" fill="none" version="1.1" xmlns="http://www.w3.org/2000/svg" xmlns:cc="http://creativecommons.org/ns#" xmlns:dc="http://purl.org/dc/elements/1.1/" xmlns:rdf="http://www.w3.org/1999/02/22-rdf-syntax-ns#">
 <metadata>
  <rdf:RDF>
   <cc:Work rdf:about="">
    <dc:format>image/svg+xml</dc:format>
    <dc:type rdf:resource="http://purl.org/dc/dcmitype/StillImage"/>
    <dc:title/>
   </cc:Work>
  </rdf:RDF>
 </metadata>
 <style><![CDATA[.B{fill-rule:evenodd}.C{fill:#633001}.D{fill:#fedc90}.E{fill:#d1884f}]]></style>
 <g opacity=".19339">
  <path d="m83.363 234.58c-8.1204 0.098-16.438-4.6382-16.273-18.116-0.02119-19.457 0.37203-40.034 0.30192-59.567 0.4974-0.0209 2.0332-0.0272 4.5013-0.0272h21.837c2.4682 0 4.4352-2e-3 4.4352-2e-3l0.01875 59.38c0.09716 9.6915-6.7007 18.235-14.821 18.333z" fill="#cb6c34" stop-color="#000000" stroke="#9d5329" stroke-linejoin="round" stroke-width="4.353" style="font-variation-settings:normal"/>
  <path d="m82.054-2.161c-34.846-0.022054-69.265 26.693-69.265 59.502 0 0.81711 0.01952 1.6341 0.05819 2.4505v96.507c0 0.1498 0.0024 0.2991 6e-3 0.44795 0 1.2e-4 -1.2e-5 0 0 0 0.0048 0.14876 0.01078 0.29708 0.01964 0.44486 0 1.2e-4 -1.2e-5 0 0 0 0.01736 0.29569 0.04346 0.58928 0.07782 0.88078 1.2e-5 1.1e-4 -1.2e-5 0 0 0 0.03436 0.2915 0.07722 0.58075 0.12808 0.86769 2.5e-5 1.1e-4 -2.4e-5 0 0 0 0.05088 0.28693 0.10991 0.57151 0.17698 0.85356 2.5e-5 1.2e-4 -2.3e-5 0 0 0 0.03353 0.14096 0.06932 0.28141 0.1068 0.42111 2.4e-5 1.1e-4 -3.6e-5 0 0 0 0.07495 0.27947 0.15778 0.55613 0.24824 0.83015 3.7e-5 1.1e-4 -2.3e-5 0 0 0 0.09052 0.27404 0.18882 0.54539 0.2944 0.81363 3.6e-5 1e-4 -3.6e-5 0 0 0 0.31682 0.80494 0.7007 1.5829 1.1459 2.3293 4.8e-5 9e-5 -4.8e-5 0 0 0 0.07412 0.12432 0.15005 0.2476 0.22759 0.37015 6e-5 8e-5 -3.6e-5 0 0 0 0.15516 0.24517 0.31714 0.48665 0.4855 0.72443 6e-5 8e-5 -4.9e-5 0 0 0 0.08416 0.11888 0.17018 0.23667 0.25756 0.35361 6e-5 1e-4 -6e-5 0 0 0 0.0874 0.11696 0.17664 0.23278 0.2672 0.34776 4.9e-5 8e-5 -5.9e-5 0 0 0 0.18117 0.23005 0.36871 0.45607 0.56228 0.67799 4.8e-5 7e-5 -6e-5 0 0 0 0.09674 0.11086 0.19531 0.22066 0.29508 0.32951 6e-5 6e-5 -6e-5 0 0 0 0.1996 0.21773 0.40532 0.43096 0.61668 0.64007 0.10572 0.10466 0.21296 0.20819 0.32159 0.31058 0.43431 0.4094 0.89134 0.80082 1.3694 1.1728 0.47804 0.37193 0.97694 0.72439 1.4954 1.056 0.38883 0.24874 0.78867 0.48569 1.1986 0.71034 0.27315 0.14968 0.55093 0.29393 0.83291 0.43247 1.44e-4 6e-5 1.68e-4 0 3.47e-4 0 0.28198 0.13855 0.56832 0.27132 0.85874 0.39839 1.43e-4 4e-5 1.67e-4 0 3.35e-4 0 0.29042 0.12704 0.58511 0.24805 0.88353 0.36327 1.43e-4 4e-5 1.67e-4 0 3.35e-4 0 0.14914 0.0576 0.2993 0.11349 0.45038 0.168 1.31e-4 7e-5 1.68e-4 0 3.35e-4 0 0.30242 0.1092 0.60849 0.21208 0.9183 0.30885 0.61963 0.19358 1.2536 0.36193 1.9003 0.50377 0.48501 0.10637 0.97717 0.19785 1.4758 0.27373 0.3324 0.0507 0.66752 0.0943 1.0054 0.13084 0.32598 0.0353 0.65471 0.0634 0.98545 0.0854 0.01198 0 0.02382 2e-3 0.0358 2e-3 1.08e-4 0 1.68e-4 -3e-5 3.36e-4 0 0.51439 0.0333 1.0344 0.0502 1.5591 0.0502h4.6721c-0.10967 0.11207-0.21638 0.23542-0.31986 0.36912-6e-5 6e-5 6e-5 0 0 0-0.10345 0.13364-0.20382 0.27738-0.30094 0.43008-6e-5 8e-5 4.8e-5 0 0 0-0.1457 0.22907-0.28435 0.47805-0.4156 0.74267-4.8e-5 1.1e-4 4.8e-5 0 0 0-0.39382 0.79415-0.72221 1.7287-0.98098 2.6847-0.05747 0.21249-0.11159 0.42577-0.16217 0.63906-2.4e-5 1.1e-4 2.4e-5 0 0 0-0.0095 0.0387-0.01652 0.077-0.02551 0.11566-0.0898 0.3877-0.1697 0.77395-0.2362 1.1507-0.03652 0.20715-0.06945 0.41133-0.09877 0.61151-0.02946 0.20031-0.05532 0.39637-0.07747 0.58706-0.04429 0.38122-0.07424 0.7405-0.0892 1.0678-0.0072 0.16361-0.01198 0.31931-0.01198 0.46551 0 0.17181 0.0048 0.34382 0.01521 0.51615 0.03018 0.51702 0.10488 1.0356 0.22105 1.5505 0.07747 0.34328 0.17326 0.6851 0.28647 1.0236 0.05663 0.1693 0.11769 0.33761 0.18284 0.50514 3.5e-5 1e-4 -3.6e-5 0 0 0 0.19554 0.50249 0.42922 0.99621 0.69759 1.4761 0.26848 0.48003 0.57148 0.94597 0.90626 1.3931 0.22315 0.29804 0.46052 0.58775 0.71068 0.86736 0.62542 0.69903 1.3322 1.3356 2.1052 1.8862 0.15459 0.11014 0.3116 0.21683 0.47138 0.31985 0.95872 0.61823 2.0083 1.1054 3.1226 1.4207 0.92852 0.26271 1.902 0.40595 2.905 0.40595 1.0031 2e-5 1.9765-0.14325 2.905-0.40595 0.18571-0.0526 0.3696-0.10992 0.5516-0.17181 0.36389-0.12378 0.72016-0.26595 1.0677-0.42491 0.17383-0.0795 0.34571-0.16327 0.5151-0.25099 0.3387-0.1754 0.66838-0.36697 0.98786-0.57296 8.4e-5 -5e-5 3.35e-4 5e-5 3.35e-4 0 0.47933-0.30905 0.9357-0.65082 1.3663-1.0202 0.28706-0.24624 0.5624-0.50479 0.82534-0.77402 0.39449-0.40394 0.76088-0.83169 1.0956-1.2788 6e-5 -5e-5 -4.8e-5 0 0 0 0.11147-0.14895 0.21962-0.29981 0.32401-0.45278 6e-5 -7e-5 -4.8e-5 0 0 0 0.1044-0.15295 0.20527-0.30785 0.30231-0.46448 6e-5 -8e-5 -4.8e-5 0 0 0 0.19417-0.31345 0.37355-0.63351 0.5368-0.95928 0.08166-0.16298 0.1592-0.32724 0.23276-0.49272 0.07352-0.1654 0.14279-0.33176 0.20798-0.49928 0.06513-0.16753 0.12622-0.33618 0.18284-0.50547 0.11314-0.33847 0.20906-0.68011 0.28647-1.0233 2.3e-5 -1.3e-4 -3.7e-5 0 0 0 0.03867-0.17165 0.07292-0.34354 0.10225-0.51581 0.05879-0.34451 0.09866-0.68998 0.11877-1.0347 0.0095-0.17233 0.0152-0.34434 0.0152-0.51615 0-0.29241-0.01508-0.62242-0.04478-0.97922-0.02801-0.33611-0.07016-0.69732-0.12395-1.0726-0.03185-0.22235-0.06728-0.44881-0.10811-0.68003-0.25586-1.4501-0.68554-3.0393-1.2754-4.3209-0.08429-0.1831-0.17196-0.35999-0.26271-0.52924-0.04538-0.0846-0.09147-0.16724-0.13842-0.24789-0.18792-0.32267-0.38867-0.61235-0.60187-0.85874-0.05328-0.0615-0.10728-0.12063-0.16218-0.17665h54.331c0.0803 0.13111 0.1553 0.27276 0.22485 0.42353 0.0348 0.0754 0.0681 0.15298 0.10027 0.23275 6e-5 1.5e-4 0 0 0 0 0.0642 0.15943 0.12298 0.32722 0.17665 0.50201 3e-5 1e-4 -2e-5 0 0 0 0.0268 0.0874 0.0526 0.17651 0.0767 0.26719 4e-5 1.1e-4 -2e-5 0 0 0 0.0242 0.0906 0.0473 0.18287 0.0689 0.2765 3e-3 0.0165 7e-3 0.0339 0.0108 0.0507 0.0538 0.23886 0.0982 0.48725 0.13566 0.74065 4e-3 0.0287 0.0108 0.0561 0.0145 0.0851 0 1.1e-4 -1e-5 0 0 0 0.0845 0.6027 0.12425 1.2361 0.12154 1.8617v0c-2e-3 0.62562-0.048 1.2434-0.1329 1.8149-2e-5 1.2e-4 1e-5 0 0 0-0.0283 0.19043-0.0611 0.37569-0.0982 0.55439-3e-5 9e-5 2e-5 0 0 0-0.0185 0.0893-0.0381 0.17688-0.0589 0.2627-3e-5 1.2e-4 2e-5 0 0 0-0.0621 0.25767-0.13378 0.49889-0.21486 0.71894-4e-5 1.5e-4 0 0 0 0-0.0271 0.0733-0.0549 0.14444-0.0841 0.21279-0.0873 0.20548-0.18375 0.388-0.28923 0.543-0.0448 0.063-0.10262 0.13917-0.17181 0.22794-1.3e-4 1.5e-4 0 0 0 0-0.0691 0.0887-0.14941 0.18984-0.23929 0.30234-1.1e-4 1.2e-4 0 0 0 0-0.23081 0.28875-0.52753 0.65909-0.85254 1.0812-0.0552 0.0716-0.10776 0.13826-0.16459 0.21314-5e-5 8e-5 6e-5 0 0 0-0.13055 0.17205-0.26533 0.35237-0.40216 0.54023-6e-5 8e-5 6e-5 0 0 0-0.0569 0.078-0.11506 0.16226-0.1725 0.24274-0.35781 0.50131-0.72431 1.0444-1.0705 1.6221-0.33481 0.55868-0.64963 1.145-0.91588 1.7433-0.15979 0.35901-0.30202 0.72236-0.4208 1.0867-0.11876 0.36431-0.21406 0.72933-0.27957 1.0922-0.0219 0.12096-0.0405 0.24161-0.0554 0.3619-0.0301 0.2407-0.0459 0.47964-0.0459 0.71617 0 0.35249 0.02 0.70345 0.0591 1.0519 0.0393 0.34846 0.0977 0.6944 0.17424 1.0364 0.0381 0.17099 0.0812 0.34098 0.12843 0.50992 0.0945 0.33791 0.20648 0.67136 0.33537 0.9992 0.12891 0.32788 0.27451 0.65005 0.43591 0.9655 0.16141 0.31544 0.33865 0.62423 0.53061 0.92486 0.19196 0.30059 0.39881 0.59327 0.61944 0.87662 0.44123 0.56675 0.9377 1.0967 1.482 1.5801 0.13605 0.12084 0.27506 0.23871 0.41697 0.35362 0.85147 0.68945 1.8059 1.2686 2.8372 1.7058 0.17188 0.0728 0.34563 0.14179 0.52165 0.20659 0.35213 0.12964 0.71213 0.24287 1.0794 0.33847 0.36721 0.0956 0.74169 0.17361 1.1222 0.23277 0.57069 0.0887 1.1551 0.13498 1.7502 0.13498 0.20159 0 0.40214-4e-3 0.60119-0.0138 0.19914-0.01 0.39726-0.0226 0.5936-0.0406 1.1781-0.10811 2.3034-0.3743 3.3485-0.77438 0.51088-0.19556 1.0026-0.43439 1.472-0.71033 0.11732-0.069 0.23357-0.14024 0.34811-0.21383 0.34354-0.22077 0.67407-0.46173 0.99026-0.72066 0.21077-0.17262 0.41528-0.35344 0.6129-0.54127 0.19761-0.18784 0.38826-0.38267 0.5719-0.58431 6e-5 -8e-5 -5e-5 0 0 0 0.0918-0.1008 0.18178-0.20311 0.26995-0.30714 0.0883-0.10401 0.17443-0.20966 0.25893-0.31675 0.0844-0.10691 0.16703-0.21525 0.24758-0.32505 4e-5 -8e-5 -6e-5 0 0 0 0.0806-0.1098 0.15926-0.22085 0.23585-0.33333 6e-5 -7e-5 -4e-5 0 0 0 0.0766-0.11254 0.15155-0.22619 0.22416-0.34122 0.0726-0.11518 0.1429-0.23135 0.21141-0.34882 0.0683-0.11721 0.13482-0.23559 0.19901-0.35497 7e-5 -1e-4 -5e-5 0 0 0 0.0642-0.1195 0.12638-0.23975 0.18627-0.36121 0.11984-0.24302 0.23079-0.48976 0.33262-0.7396 0.0509-0.12489 0.0994-0.25038 0.14564-0.3767 0.0926-0.25273 0.17591-0.50796 0.24931-0.76543 0.0367-0.12866 0.0709-0.25775 0.10262-0.38736 0.0634-0.25928 0.11697-0.52001 0.1601-0.78194 0.0215-0.13091 0.0405-0.26191 0.0569-0.39321 0.049-0.3939 0.074-0.78914 0.074-1.1834 0-0.96876-0.17893-1.9817-0.47792-2.9708-0.0332-0.10991-0.0679-0.21928-0.1039-0.32849-0.0722-0.21851-0.14998-0.43541-0.23277-0.65008-0.0827-0.21458-0.17037-0.42672-0.26238-0.63597-0.27602-0.62779-0.59055-1.228-0.92655-1.7808-0.11194-0.18427-0.22656-0.36319-0.34261-0.53612-0.11601-0.17292-0.23374-0.33985-0.35259-0.49995-0.35648-0.48036-0.72234-0.89969-1.0805-1.2378-0.11937-0.11278-0.23803-0.2163-0.355-0.31025-0.3059-0.29103-0.55529-0.61349-0.7551-0.95928-0.0499-0.0865-0.0969-0.17419-0.14082-0.2634-0.13146-0.26762-0.2358-0.54697-0.31574-0.83498-0.0532-0.19201-0.0957-0.38786-0.1281-0.58637-0.0324-0.19853-0.0546-0.39992-0.0679-0.6029-0.0197-0.30453-0.0187-0.61295 0-0.92175 0.0128-0.20589 0.0333-0.41183 0.0613-0.61703 0.0419-0.30785 0.10005-0.6139 0.17182-0.91452 0.0478-0.20043 0.10177-0.39828 0.16079-0.59293 0.11806-0.38932 0.25685-0.76505 0.41009-1.119 0.22983-0.53098 0.49195-1.0132 0.76473-1.4186h7.9611c0.52478 0 1.0449-0.0169 1.5594-0.0502 0.34299-0.0223 0.68334-0.0516 1.0212-0.0882 0.33792-0.0365 0.67337-0.0802 1.0058-0.13085 0.49859-0.076 0.99075-0.16736 1.4758-0.27372 0.64667-0.14185 1.2807-0.31019 1.9003-0.50376 0.92946-0.29033 1.8265-0.63734 2.6857-1.036 0.42959-0.19938 0.84961-0.41167 1.2595-0.63632 0.40991-0.22465 0.80974-0.46161 1.1986-0.71033 0.51837-0.33158 1.0174-0.68417 1.4954-1.056 0.47808-0.37195 0.93539-0.76336 1.3697-1.1728 0.10859-0.10241 0.21548-0.20593 0.32123-0.31057 1.1629-1.1504 2.151-2.434 2.9295-3.8216 0.14156-0.25232 0.27608-0.50817 0.40356-0.76716 0.38242-0.77687 0.70091-1.5831 0.9493-2.4137 1e-5 -1.1e-4 -4e-5 0 0 0 0.28977-0.96906 0.48462-1.9714 0.57535-2.9994 2e-5 -1.2e-4 0 0 0 0 0.0389-0.44061 0.0586-0.88585 0.0586-1.3353l-2e-3 -27.415-6e-3 -73.329c-0.33322-29.838-33.288-56.797-68.593-57.684-0.55319-0.013926-1.1065-0.021285-1.6596-0.021692z" fill="#f0f" stop-color="#000000" style="font-variation-settings:normal"/>
  <path d="m82.055-5.3116c-0.0886 1.66e-4 -0.17718 0.00407-0.26547 0.01173-18.137 0.055724-35.986 6.9613-49.449 18.157-13.53 11.25-22.702 26.978-22.702 44.484 0 0.81736 0.022153 1.6347 0.058552 2.4505v88.174l6.3-0.54058v-87.633c-9.6e-5 -0.04949-0.0012-0.09897-0.0036-0.1484-0.03628-0.76733-0.05472-1.5352-0.05472-2.3021 1.3e-5 -15.303 8.0387-29.336 20.43-39.64 12.392-10.304 29.066-16.723 45.683-16.712 0.5268 3.4065e-4 1.0544 0.007391 1.5825 0.020653 16.876 0.42424 33.325 7.1301 45.474 17.258 10.441 8.7041 17.555 19.845 19.456 31.549l0.59947 86.186 6.3004-0.54059-0.51924-86.193c-2.0746-13.677-10.299-26.25-21.803-35.841-13.238-11.036-30.919-18.253-49.348-18.716-0.5782-0.014558-1.158-0.022999-1.7374-0.023406zm-1.9008 31.495c-1.9168-3.41e-4 -3.4707 1.0376-3.4701 2.3178v123.31c3.35e-4 1.2798 1.554 2.317 3.4701 2.3166 1.9154 0 3.468-1.0373 3.4684-2.3166v-123.31c6.71e-4 -1.2798-1.5523-2.3176-3.4684-2.3178zm39.159-2.6571c-0.1531-6.8e-4 -0.30609 0.0064-0.45796 0.02135-1.9008 0.18518-3.2485 1.532-3.0104 3.0083 0 0 0.20766 1.3045 0.69314 2.8193 0.46031 1.4363 0.81151 3.0903 2.7497 4.6187 0.0251 0.0331 0.0511 0.07172 0.072 0.12017 0.11218 0.26129 0.25195 0.72197 0.34123 1.2657 0.17853 1.0875 0.15803 2.5234-0.21589 3.7889-0.37392 1.2655-1.0641 2.3112-2.0329 2.9832-0.96877 0.67202-2.2683 1.1543-4.8422 1.0657-3.5957-0.12387-4.9909-0.8573-5.7343-1.5894-0.74345-0.73209-1.0752-1.885-0.92451-3.4198 0.30139-3.0697 2.584-6.7596 3.1543-7.6567 1.323-2.0809 1.3759-4.0158 1.3759-4.0158 0.0206-1.4878-1.5153-2.7069-3.4308-2.7232-1.9155-0.01605-3.4852 1.1769-3.5062 2.6647 0 0 0.0154 0.62526-0.66042 1.6882-0.42903 0.67481-3.3941 4.9673-3.8523 9.6338-0.22908 2.3332 0.182 4.9861 2.3961 7.1664 2.2141 2.1803 5.9909 3.4664 10.875 3.6347 4.003 0.1379 7.422-0.79973 9.7705-2.4288 2.3484-1.6291 3.5732-3.7662 4.1732-5.797 0.60004-2.0308 0.61081-4.0055 0.3364-5.6768-0.1372-0.83568-0.34235-1.5926-0.64148-2.289-0.29912-0.69641-0.50114-1.3259-1.6262-2.1303 0.30581 0.21865-0.67262-1.0438-1.0447-2.2047-0.37206-1.1609-0.54195-2.1864-0.54195-2.1864-0.21523-1.3408-1.6757-2.3505-3.4153-2.361zm-79.895 6.9694c-1.775 0.01951-3.2447 1.0767-3.4057 2.4498 0 0-0.04274 0.35135-0.10811 0.75957-0.05795 0.36141-0.16614 0.73614-0.13394 0.68864-0.088 0.13512-0.20793 0.3191-0.36016 0.55711-0.32776 0.51247-0.76924 1.2241-1.2334 2.0728-0.92821 1.6973-1.9693 3.9347-2.3979 6.3885-0.42854 2.4538-0.26418 5.2642 1.8163 7.7032 2.0805 2.439 5.9463 4.0511 11.129 4.4486 5.2722 0.40438 9.6064-0.89057 11.944-3.3255 2.3374-2.4349 2.6838-5.3723 2.5042-8.0602-0.35909-5.3759-3.1375-10.481-3.1375-10.481-0.72399-1.3771-2.7478-2.038-4.5213-1.4764-1.7742 0.56241-2.6252 2.1356-1.9007 3.5135 0 0 2.3606 4.67 2.6313 8.7237 0.1354 2.0269-0.33087 3.7173-1.139 4.5592-0.80814 0.84183-1.9523 1.4718-5.6982 1.1845-3.8352-0.29415-5.257-1.1589-6.0277-2.0625-0.77075-0.90356-1.0211-2.301-0.72376-4.0034s1.1223-3.5687 1.9072-5.004c0.39248-0.71767 0.77009-1.329 1.0602-1.7826 0.14503-0.22678 0.26648-0.41318 0.36704-0.56779 0.10058-0.15461 0.05783 0.11525 0.37911-0.67418 0.31522-0.77459 0.33865-1.228 0.42006-1.7361 0.08141-0.50806 0.13221-0.93656 0.13221-0.93656 0.17406-1.4822-1.2322-2.7933-3.1405-2.9281-0.09758-0.0069-0.19543-0.01028-0.29337-0.01061-0.02322-1.7e-4 -0.04634-1.7e-4 -0.06956 0zm79.787 3.4126c2e-3 -0.0044 0.0363 0.02614 0.0762 0.07678-0.0545-0.04748-0.0771-0.07328-0.0762-0.07678zm36.258 101.55-6.3004 0.54058 2e-3 20.296c0 7.6136-7.3119 14.158-17.06 14.158h-7.9603c-1.0482 7e-5 -2.0277 0.5215-2.6131 1.3911-1.057 1.5712-1.8394 3.5369-2.0652 5.7987-0.22581 2.2618 0.2355 5.0636 2.3462 7.0717 0.0634 0.0609 0.12959 0.11913 0.19799 0.17458 0.35451 0.2847 1.2819 1.3976 1.9182 2.686 0.63632 1.2885 1.0385 2.7756 1.0385 3.8079-2e-5 2.7772-2.1862 6.0984-4.9259 7.1471-1.0346 0.39601-2.1869 0.62081-3.416 0.6208-4.6015-3e-5 -8.3432-4.0439-8.3433-7.7679 4e-5 -0.76056 0.65877-2.461 1.619-3.9418 0.96024-1.4807 1.8633-2.4439 2.5886-3.4632 0.0126-0.0181 0.0252-0.0364 0.0376-0.0547 1.333-1.9592 1.4148-3.817 1.4238-5.8652 0.01-2.0482-0.17046-4.1067-1.3938-6.1021-0.57273-0.93368-1.5894-1.5028-2.6847-1.503h-54.333c-2.79 0-4.202 3.3603-2.2501 5.3539 0.10943 0.1117 0.83876 1.4104 1.2272 2.8458 0.38841 1.4353 0.59087 3.0764 0.59086 3.8144-7.1e-5 3.5102-3.9737 8.2156-8.4744 8.2155-4.5006-9e-5 -8.4747-4.7054-8.4748-8.2155 0-0.738 0.20376-2.3791 0.59222-3.8144 0.38847-1.4354 1.1177-2.7341 1.2272-2.8458 1.9523-1.9941 0.53917-5.3544-2.2515-5.3539h-4.6718c-9.7478 0-17.058-6.544-17.058-14.158v-8.8739l-6.3 0.5406v8.3333c0 11.471 10.554 20.294 23.068 20.432-0.0261 0.0944-0.06945 0.18513-0.09506 0.2796-0.53157 1.9641-0.80946 3.859-0.80949 5.4606 1.44e-4 7.4854 6.4347 14.515 14.773 14.516 8.339 1e-4 14.774-7.0299 14.774-14.516 2.5e-5 -1.6016-0.27767-3.4965-0.80916-5.4606-0.02322-0.086-0.06238-0.16881-0.08608-0.2548h46.925c0.0986 0.50029 0.21747 0.68536 0.21487 1.2778-4e-3 1.2016-0.47015 2.4666-0.36464 2.3851-0.11075 0.1294-1.4696 1.745-2.6716 3.5985-1.2563 1.9373-2.6336 4.3475-2.6337 7.3699 5e-5 7.5556 6.5485 14.066 14.642 14.067 1.9982 3e-5 3.9174-0.36658 5.6699-1.0374 5.4358-2.0808 8.973-7.3944 8.973-13.029 1e-5 -2.4119-0.72731-4.648-1.6903-6.5979-0.92686-1.877-2.0197-3.4647-3.4532-4.6676-0.31577-0.32285-0.48804-0.85084-0.38842-1.8487 0.0482-0.48318 0.19953-1.0197 0.37601-1.5171h5.9939c12.643 0 23.36-8.8945 23.36-20.456zm-35.511-79.059c-1.916 1.69e-4 -3.4689 0.90747-3.4684 2.0263v96.386c0 1.1184 1.553 2.0251 3.4684 2.0253 1.916 0 3.4697-0.90645 3.4701-2.0253v-96.386c0-1.1192-1.5534-2.0267-3.4701-2.0263zm-76.706 10.561c-1.9162-3.4e-4 -3.47 0.90666-3.4701 2.0256v84.852c3.48e-4 1.1188 1.5541 2.0256 3.4701 2.0253 1.9153 0 3.4679-0.90684 3.4684-2.0253v-84.852c-9.5e-5 -1.1186-1.5528-2.0254-3.4684-2.0256z" color="#000000" color-rendering="auto" dominant-baseline="auto" fill="#cd00cd" image-rendering="auto" shape-rendering="auto" solid-color="#000000" stop-color="#000000" style="font-feature-settings:normal;font-variant-alternates:normal;font-variant-caps:normal;font-variant-east-asian:normal;font-variant-ligatures:normal;font-variant-numeric:normal;font-variant-position:normal;font-variation-settings:normal;inline-size:0;isolation:auto;mix-blend-mode:normal;shape-margin:0;shape-padding:0;text-decoration-color:#000000;text-decoration-line:none;text-decoration-style:solid;text-indent:0;text-orientation:mixed;text-transform:none;white-space:normal"/>
 </g>
</svg>
