<?xml version="1.0" encoding="UTF-8"?>
<svg width="202" height="134" fill="none" version="1.1" xmlns="http://www.w3.org/2000/svg" xmlns:cc="http://creativecommons.org/ns#" xmlns:dc="http://purl.org/dc/elements/1.1/" xmlns:rdf="http://www.w3.org/1999/02/22-rdf-syntax-ns#" xmlns:xlink="http://www.w3.org/1999/xlink">
 <metadata>
  <rdf:RDF>
   <cc:Work rdf:about="">
    <dc:format>image/svg+xml</dc:format>
    <dc:type rdf:resource="http://purl.org/dc/dcmitype/StillImage"/>
    <dc:title/>
   </cc:Work>
  </rdf:RDF>
 </metadata>
 <style><![CDATA[.B{fill:#fff}.C{fill:#000}.D{fill-rule:evenodd}.E{fill:#612f01}.F{fill:#fedc90}.G{fill:#d1884f}]]></style>
 <g clip-path="url(#G)" opacity=".9">
  <g fill="#aea0d6">
   <path d="M40.8 62.955c-.16-1.047-1.67-1.047-1.828 0l-.945 6.202c-.06.4-.375.714-.775.775l-6.202.945c-1.047.16-1.047 1.67 0 1.83l6.202.945c.4.06.714.375.775.775l.945 6.202c.16 1.047 1.67 1.047 1.828 0l.945-6.202c.06-.4.375-.714.775-.775l6.202-.945c1.047-.16 1.047-1.67 0-1.83l-6.202-.945c-.4-.06-.714-.375-.775-.775l-.945-6.202zM159.277 43.2c-.16-1.047-1.67-1.047-1.83 0l-.945 6.202c-.06.4-.375.714-.775.775l-6.202.945c-1.047.16-1.047 1.67 0 1.828l6.202.945c.4.06.714.375.775.775l.945 6.202c.16 1.047 1.67 1.047 1.83 0l.945-6.202c.06-.4.375-.714.775-.775l6.2-.945c1.048-.16 1.048-1.67 0-1.828l-6.2-.945c-.4-.06-.714-.375-.775-.775l-.945-6.202zm-76.49-35.7c.16-1.047 1.67-1.047 1.83 0l.3 2.04c.06.4.375.714.775.775l2.04.3c1.047.16 1.047 1.67 0 1.83l-2.04.3c-.4.06-.714.375-.775.775l-.3 2.04c-.16 1.047-1.67 1.047-1.83 0l-.3-2.04c-.06-.4-.375-.714-.775-.775l-2.04-.3c-1.047-.16-1.047-1.67 0-1.83l2.04-.3c.4-.06.714-.375.775-.775l.3-2.04z" opacity=".5"/>
  </g>
  <mask id="A" class="C" x="100.643" y="85.509" width="72" height="48" maskUnits="userSpaceOnUse">
   <path class="B" d="m100.64 85.51h72v48h-72z"/>
   <path class="D" d="m169.59 108.7v2.143c0 11.13-14.764 20.15-32.975 20.15s-32.975-9.022-32.975-20.15v-2.177c0-11.13 14.763-20.152 32.975-20.152s32.975 9.022 32.975 20.152v0.034z"/>
  </mask>
  <mask id="B" class="C" x="106.737" y="83.193" width="60" height="43" maskUnits="userSpaceOnUse">
   <path class="B" d="m106.74 83.193h60v43h-60z"/>
   <path class="D" d="m163.69 102.78v-0.1c0-9.104-12.077-16.484-26.974-16.484s-26.975 7.38-26.975 16.484v4.197c0 9.104 12.077 16.485 26.974 16.485s26.975-7.38 26.975-16.485v-4.097z"/>
  </mask>
  <mask id="C" class="C" x="111.166" y="77.758" width="60" height="43" maskUnits="userSpaceOnUse">
   <path class="B" d="m111.17 77.758h60v43h-60z"/>
   <path class="D" d="M168.115 97.4l.002-.16c0-9.104-12.077-16.484-26.975-16.484s-26.974 7.38-26.975 16.483h-.001v4.196c0 9.104 12.077 16.485 26.975 16.485s26.974-7.38 26.974-16.485V97.4z"/>
  </mask>
  <mask id="D" class="C" x="100.278" y="69.903" width="60" height="43" maskUnits="userSpaceOnUse">
   <path class="B" d="m100.28 69.903h60v43h-60z"/>
   <path class="D" d="m157.23 89.485v-0.097c0-9.104-12.077-16.485-26.975-16.485s-26.974 7.38-26.974 16.485h-1e-3v4.196c0 9.104 12.077 16.485 26.975 16.485s26.975-7.38 26.975-16.485v-4.1z"/>
  </mask>
  <mask id="E" class="C" x="54.459" y="19.562" width="73.462" height="67.239" maskUnits="userSpaceOnUse">
   <path class="B" d="M54.46 19.562h73.462V86.8H54.46z"/>
   <path class="D" d="M115.49 41.374l.045.078c4.552 7.884-2.216 20.314-15.118 27.763s-27.05 7.096-31.603-.788h0l-2.098-3.634C62.165 56.91 68.934 44.48 81.835 37.03s27.05-7.096 31.603.79l2.053 3.555z"/>
  </mask>
  <mask id="F" class="C" x="-3.84" y="-5.357" width="72.832" height="72.832" maskUnits="userSpaceOnUse">
   <path class="B" d="M-3.84-5.357h72.832v72.832H-3.84z"/>
   <path class="D" d="M12.095 48.7c-6.438-6.438-3.117-20.196 7.418-30.73s24.293-13.855 30.73-7.418l.035.035L53.2 13.51c6.438 6.438 3.117 20.196-7.418 30.73S21.5 58.095 15.062 51.657L12.095 48.7z"/>
  </mask>
  <g id="g885" transform="matrix(.14656 .089879 -.089879 .14656 127.23 54.513)">
   <path d="m317.07 283.98c-12.187 0.14716-24.67-6.9611-24.422-27.189-0.0318-29.201 0.55834-60.084 0.45311-89.4 0.7465-0.0313 3.0514-0.0407 6.7557-0.0407h32.773c3.7043 0 6.6565-4e-3 6.6565-4e-3l0.0282 89.119c0.14599 14.545-10.057 27.367-22.244 27.514z" fill="#cb6c34" opacity="1" stop-color="#000000" stroke="#9d5329" stroke-linejoin="round" stroke-width="6.533" style="font-variation-settings:normal"/>
   <path transform="matrix(.26458 0 0 .26458 80.392 -141.86)" d="m887.09 266.61c-197.66-0.1251-392.9 151.41-392.9 337.52 0 4.6349 0.11087 9.2693 0.33008 13.9v547.43c0 0.8498 0.0123 1.6966 0.0371 2.541 2e-5 7e-4 -2e-5 0 0 0 0.0248 0.8438 0.062 1.6852 0.11133 2.5234 4e-5 7e-4 -4e-5 0 0 0 0.0986 1.6772 0.24653 3.3426 0.44141 4.9961 7e-5 6e-4 -8e-5 0 0 0 0.19493 1.6535 0.43775 3.2942 0.72656 4.9219 1.1e-4 6e-4 -1.1e-4 0 0 0 0.28884 1.6276 0.62355 3.2418 1.0039 4.8417 1.5e-4 7e-4 -1.4e-4 0 0 0 0.19012 0.7996 0.39294 1.5963 0.60547 2.3887 1.7e-4 6e-4 -1.6e-4 0 0 0 0.42525 1.5853 0.89499 3.1546 1.4082 4.709 1.9e-4 6e-4 -2e-4 0 0 0 0.51327 1.5544 1.071 3.0936 1.6699 4.6152 2.2e-4 6e-4 -2.3e-4 0 0 0 1.7972 4.5659 3.9746 8.979 6.5 13.213 2.9e-4 5e-4 -2.9e-4 0 0 0 0.42068 0.7052 0.85116 1.4045 1.291 2.0996 3e-4 5e-4 -2.9e-4 0 0 0 0.88004 1.3907 1.7989 2.7605 2.7539 4.1093 3.1e-4 5e-4 -3.1e-4 0 0 0 0.47737 0.6742 0.96528 1.3425 1.4609 2.0058 3.1e-4 5e-4 -3.2e-4 0 0 0 0.49567 0.6633 1.002 1.3204 1.5156 1.9727 3.2e-4 4e-4 -3.2e-4 0 0 0 1.0277 1.3049 2.0915 2.5869 3.1895 3.8457 3.2e-4 4e-4 -3.3e-4 0 0 0 0.54883 0.6292 1.1079 1.2517 1.6738 1.8691 3.3e-4 4e-4 -3.3e-4 0 0 0 1.1322 1.2351 2.2991 2.4447 3.498 3.6308 0.59997 0.5936 1.208 1.1809 1.8242 1.7617 2.4635 2.3223 5.056 4.5426 7.7676 6.6524 2.7116 2.1098 5.5416 4.1091 8.4824 5.9902 2.2056 1.4109 4.4737 2.755 6.7988 4.0293 1.5494 0.8491 3.1251 1.6672 4.7246 2.4531 7.8e-4 4e-4 1e-3 0 2e-3 0 1.5995 0.7859 3.2238 1.5391 4.8711 2.2598 7.9e-4 3e-4 1e-3 0 2e-3 0 1.6474 0.7207 3.3189 1.4071 5.0117 2.0606 8e-4 3e-4 1e-3 0 2e-3 0 0.84602 0.3266 1.6978 0.6438 2.5547 0.9531 7.9e-4 3e-4 1e-3 0 2e-3 0 1.7154 0.6193 3.4516 1.2029 5.209 1.7519 3.5147 1.098 7.1111 2.0529 10.779 2.8575 2.7512 0.6034 5.5429 1.1223 8.3711 1.5527 1.8854 0.2869 3.7864 0.5347 5.7031 0.7422 1.8491 0.2001 3.7138 0.36 5.5898 0.4844 0.068 0 0.13513 0.011 0.20313 0.016 6.5e-4 0 1e-3 -1e-4 2e-3 0 2.9178 0.1889 5.8676 0.2851 8.8438 0.2851h26.502c-0.62238 0.6355-1.2274 1.3354-1.8144 2.0938-3.1e-4 4e-4 3.1e-4 0 0 0-0.58667 0.7581-1.1562 1.5734-1.707 2.4395-3e-4 5e-4 2.9e-4 0 0 0-0.82641 1.2995-1.6129 2.7118-2.3574 4.2129-2.6e-4 6e-4 2.6e-4 0 0 0-2.2339 4.5046-4.0967 9.8056-5.5645 15.228-0.32617 1.2052-0.63288 2.4151-0.91992 3.625-1.4e-4 6e-4 1.5e-4 0 0 0-0.052 0.2193-0.0938 0.437-0.14453 0.6562-0.50909 2.1992-0.96264 4.3902-1.3398 6.5274-0.20738 1.175-0.39371 2.3332-0.56055 3.4687-0.16698 1.1362-0.31352 2.2483-0.43945 3.3301-0.25172 2.1623-0.42099 4.2004-0.50586 6.0566-0.0424 0.9281-0.0644 1.8112-0.0644 2.6406 1e-5 0.9746 0.029 1.9502 0.0859 2.9278 0.17096 2.9327 0.5951 5.874 1.2539 8.7949 0.43921 1.9473 0.98278 3.8862 1.625 5.8066 0.32109 0.9603 0.66733 1.915 1.0371 2.8653 2.2e-4 6e-4 -2.2e-4 0 0 0 1.1092 2.8504 2.4347 5.651 3.957 8.3731 1.5229 2.723 3.2416 5.366 5.1406 7.9023 1.2658 1.6906 2.6122 3.3339 4.0312 4.9199 3.5476 3.9652 7.5566 7.5764 11.941 10.699 0.87695 0.6245 1.7675 1.23 2.6738 1.8144 5.4383 3.5068 11.392 6.2703 17.713 8.0586 5.267 1.4902 10.789 2.3027 16.479 2.3027 5.69 1e-4 11.212-0.8126 16.479-2.3027 1.0534-0.298 2.0966-0.6235 3.1289-0.9746 2.0641-0.7021 4.085-1.5086 6.0566-2.4102 0.98608-0.4509 1.961-0.9262 2.9219-1.4238 1.9212-0.9949 3.7913-2.0816 5.6035-3.25 4.5e-4 -3e-4 2e-3 3e-4 2e-3 0 2.719-1.7531 5.3076-3.6918 7.75-5.7871 1.6283-1.3968 3.1901-2.8633 4.6816-4.3906 2.2377-2.2913 4.316-4.7176 6.2148-7.2539 3.1e-4 -4e-4 -3.2e-4 0 0 0 0.63255-0.8449 1.2457-1.7006 1.8379-2.5683 3e-4 -5e-4 -3.1e-4 0 0 0 0.59217-0.8677 1.1644-1.7463 1.7148-2.6348 3e-4 -4e-4 -3e-4 0 0 0 1.1014-1.7779 2.1189-3.5935 3.0449-5.4414 0.46328-0.9245 0.90301-1.8562 1.3203-2.7949 0.41709-0.9382 0.8099-1.8818 1.1797-2.8321s0.71601-1.9069 1.0371-2.8672c0.64202-1.9199 1.1859-3.8579 1.625-5.8046 1.4e-4 -7e-4 -1.4e-4 0 0 0 0.2196-0.9737 0.4133-1.9486 0.58008-2.9258 0.33355-1.9542 0.55986-3.9139 0.67383-5.8691 0.057-0.9776 0.0859-1.9532 0.0859-2.9278 2e-5 -1.6588-0.0853-3.5307-0.25391-5.5546-0.15885-1.9065-0.39786-3.9554-0.70313-6.084-0.18087-1.2613-0.38187-2.5458-0.61328-3.8574-1.4513-8.2255-3.8886-17.24-7.2344-24.51-0.47796-1.0386-0.97548-2.042-1.4902-3.002-0.25738-0.4799-0.51866-0.9487-0.78515-1.4062-1.066-1.8303-2.2047-3.4735-3.4141-4.8711-0.30234-0.3494-0.60875-0.6842-0.91992-1.002h308.19c0.4559 0.7437 0.8808 1.5471 1.2754 2.4024 0.1973 0.4276 0.3862 0.8678 0.5684 1.3203 3e-4 8e-4 0 0 0 0 0.364 0.9043 0.6976 1.8561 1.002 2.8476 2e-4 6e-4 -2e-4 0 0 0 0.1521 0.4956 0.2981 1.0012 0.4355 1.5156 2e-4 6e-4 -1e-4 0 0 0 0.1374 0.5144 0.2678 1.0373 0.3906 1.5684 0.022 0.094 0.039 0.1923 0.061 0.2871 0.3051 1.3549 0.5566 2.7639 0.7695 4.2012 0.024 0.1632 0.059 0.3183 0.082 0.4824 0 6e-4 -1e-4 0 0 0 0.4794 3.4188 0.7048 7.0118 0.6894 10.56v0c-0.015 3.5487-0.2721 7.0533-0.7539 10.295-1e-4 6e-4 1e-4 0 0 0-0.1606 1.0801-0.3464 2.131-0.5566 3.1446-2e-4 6e-4 1e-4 0 0 0-0.1051 0.5064-0.2167 1.0034-0.334 1.4902-2e-4 7e-4 1e-4 0 0 0-0.3522 1.4616-0.7589 2.8299-1.2188 4.0781-3e-4 8e-4 0 0 0 0-0.1531 0.4154-0.3119 0.8193-0.4766 1.207-0.4952 1.1655-1.0424 2.2009-1.6406 3.0801-0.2541 0.357-0.582 0.7894-0.9746 1.293-7e-4 8e-4 0 0 0 0-0.3922 0.5031-0.8475 1.0769-1.3574 1.7149-6e-4 8e-4 0 0 0 0-1.3092 1.638-2.9923 3.7387-4.8359 6.1328-0.3128 0.4063-0.6112 0.7842-0.9336 1.209-3e-4 4e-4 3e-4 0 0 0-0.7405 0.9759-1.5051 1.9987-2.2812 3.0644-4e-4 4e-4 3e-4 0 0 0-0.3222 0.4424-0.6528 0.9204-0.9786 1.3769-2.0295 2.8436-4.1085 5.9244-6.0722 9.2012-1.8992 3.169-3.6849 6.4946-5.1953 9.8887-0.9063 2.0364-1.7131 4.0975-2.3868 6.164-0.6736 2.0665-1.2143 4.1371-1.5859 6.1953-0.1239 0.6861-0.2293 1.3705-0.3144 2.0528-0.1705 1.3653-0.2598 2.7207-0.2598 4.0625 0 1.9994 0.1134 3.9902 0.3359 5.9668 0.2226 1.9765 0.5541 3.9388 0.9883 5.8789 0.2171 0.97 0.4606 1.9342 0.7285 2.8926 0.536 1.9167 1.1712 3.8081 1.9024 5.6679s1.5571 3.6873 2.4726 5.4766c0.9156 1.7893 1.9209 3.5409 3.0098 5.2461 1.0889 1.7051 2.2622 3.3652 3.5137 4.9726 2.5028 3.2148 5.319 6.2208 8.4062 8.9629 0.7718 0.6856 1.5603 1.3541 2.3653 2.0059 4.8298 3.9109 10.244 7.196 16.094 9.6758 0.9749 0.4132 1.9605 0.8043 2.959 1.1718 1.9975 0.7354 4.0395 1.3777 6.123 1.92 2.083 0.5421 4.2072 0.9848 6.3653 1.3203 3.2371 0.5032 6.5523 0.7656 9.9277 0.7656 1.1435 0 2.2811-0.026 3.4102-0.078 1.1296-0.052 2.2534-0.1283 3.3671-0.2305 6.6828-0.613 13.066-2.1232 18.994-4.3926 2.8979-1.1092 5.6871-2.464 8.3496-4.0293 0.6657-0.3914 1.325-0.7954 1.9746-1.2129 1.9488-1.2523 3.8237-2.6191 5.6172-4.0879 1.1956-0.9791 2.3556-2.0048 3.4766-3.0703 1.1209-1.0654 2.2024-2.1706 3.2441-3.3144 3e-4 -4e-4 -3e-4 0 0 0 0.5208-0.5719 1.0311-1.1521 1.5312-1.7422 0.5005-0.5904 0.9895-1.1893 1.4688-1.7968 0.4786-0.6068 0.9474-1.221 1.4043-1.8438 3e-4 -4e-4 -3e-4 0 0 0 0.4568-0.6229 0.9034-1.2527 1.3379-1.8907 3e-4 -4e-4 -3e-4 0 0 0 0.4348-0.6384 0.8596-1.2831 1.2715-1.9356 0.4121-0.653 0.8106-1.3123 1.1992-1.9785 0.3881-0.6651 0.7648-1.3364 1.1289-2.0137 3e-4 -5e-4 -3e-4 0 0 0 0.3643-0.6778 0.7169-1.3599 1.0566-2.0488 0.6797-1.3785 1.3091-2.7781 1.8867-4.1953 0.2888-0.7084 0.5638-1.4203 0.8262-2.1368 0.525-1.4336 0.9978-2.8814 1.4141-4.3418 0.208-0.7299 0.402-1.4621 0.582-2.1972 0.3602-1.4709 0.6636-2.9498 0.9082-4.4356 0.1223-0.7425 0.2297-1.4856 0.3223-2.2304 0.2777-2.2344 0.4199-4.4763 0.4199-6.7129 0-5.4952-1.015-11.241-2.7109-16.852-0.1884-0.6234-0.3851-1.2438-0.5899-1.8633-0.4097-1.2395-0.8507-2.4698-1.3203-3.6875-0.4693-1.2171-0.9664-2.4205-1.4883-3.6074-1.5657-3.5611-3.3499-6.9658-5.2558-10.102-0.6352-1.0451-1.2851-2.0601-1.9434-3.041s-1.3259-1.9277-2-2.8359c-2.0221-2.7248-4.0974-5.1033-6.1289-7.0215-0.6772-0.6394-1.3502-1.2269-2.0137-1.7598-1.7352-1.6509-3.1498-3.4799-4.2832-5.4414-0.2833-0.4902-0.5502-0.9881-0.7988-1.4941-0.7457-1.518-1.3375-3.1026-1.791-4.7363-0.3024-1.0892-0.5427-2.2001-0.7266-3.3262s-0.3101-2.2685-0.3847-3.4199c-0.112-1.7273-0.1063-3.4769 0-5.2285 0.072-1.1678 0.189-2.336 0.3477-3.5 0.2379-1.7462 0.5678-3.4823 0.9746-5.1875 0.2712-1.1369 0.5773-2.2592 0.9121-3.3633 0.6695-2.2084 1.457-4.3397 2.3262-6.3477 1.3037-3.0119 2.7905-5.747 4.3379-8.0469h45.158c2.9768 0 5.9272-0.096 8.8457-0.2851 1.9456-0.126 3.8762-0.2926 5.7929-0.5 1.9168-0.2075 3.8196-0.4553 5.7051-0.7422 2.8282-0.4304 5.6199-0.9493 8.3711-1.5527 3.6682-0.8046 7.2645-1.7595 10.779-2.8575 5.2722-1.6469 10.361-3.6152 15.234-5.8769 2.4368-1.1309 4.8193-2.3351 7.1445-3.6094s4.5932-2.6184 6.7988-4.0293c2.9404-1.8808 5.7711-3.8808 8.4824-5.9902 2.7118-2.1098 5.3059-4.3301 7.7696-6.6524 0.6162-0.5808 1.2223-1.1681 1.8222-1.7617 6.5964-6.5252 12.201-13.806 16.617-21.678 0.803-1.4312 1.5659-2.8825 2.2891-4.3516 2.1692-4.4067 3.9758-8.9799 5.3848-13.691 1e-4 -6e-4 -2e-4 0 0 0 1.6437-5.4969 2.7489-11.183 3.2636-17.014 1e-4 -7e-4 0 0 0 0 0.2206-2.4993 0.3322-5.0249 0.3321-7.5742l-0.01-155.51-0.037-415.95c-1.8883-169.25-188.82-322.18-389.09-327.21-3.1379-0.079-6.2766-0.12078-9.4141-0.12305z" fill="#f0f" opacity="1" stop-color="#000000" style="font-variation-settings:normal"/>
   <path transform="matrix(.26458 0 0 .26458 80.392 -141.86)" d="m887.1 248.73c-0.50266 9.4e-4 -1.0051 0.0231-1.5059 0.0664-102.88 0.31606-204.12 39.487-280.5 102.99-76.745 63.816-128.78 153.03-128.78 252.33 0 4.6364 0.12548 9.2728 0.33203 13.9v500.16l35.736-3.0664v-497.09c-5.5e-4 -0.28073-8e-3 -0.5614-0.0215-0.84179-0.20602-4.3526-0.31054-8.7082-0.31054-13.059 7e-5 -86.804 45.599-166.4 115.89-224.85 70.29-58.448 164.87-94.858 259.13-94.799 2.9882 2e-3 5.9806 0.0418 8.9766 0.11719 95.728 2.4064 189.03 40.444 257.95 97.893 59.227 49.373 99.576 112.57 110.36 178.96l3.4004 488.88 35.738-3.0664-2.9453-488.92c-11.768-77.583-58.419-148.9-123.68-203.3-75.092-62.598-175.39-103.54-279.92-106.17-3.2798-0.0826-6.5688-0.13048-9.8555-0.13281zm-10.782 178.65c-10.873-2e-3 -19.687 5.8856-19.684 13.148v699.46c2e-3 7.2594 8.8149 13.143 19.684 13.141 10.865 0 19.672-5.8841 19.674-13.141v-699.46c4e-3 -7.2595-8.805-13.146-19.674-13.148zm222.13-15.072c-0.8684-4e-3 -1.7362 0.0363-2.5977 0.1211-10.782 1.0504-18.427 8.6899-17.076 17.064 0 0 1.1779 7.3999 3.9317 15.992 2.6111 8.1472 4.6032 17.529 15.598 26.199 0.1421 0.1878 0.2902 0.40679 0.4082 0.68164 0.6367 1.4821 1.4292 4.0953 1.9356 7.1797 1.0127 6.1688 0.8964 14.314-1.2246 21.492-2.121 7.1785-6.0362 13.11-11.531 16.922-5.4952 3.812-12.867 6.5479-27.467 6.0449-20.396-0.70265-28.31-4.8629-32.527-9.0156-4.2172-4.1527-6.0989-10.692-5.2442-19.398 1.7096-17.413 14.657-38.343 17.893-43.432 7.5048-11.804 7.8047-22.779 7.8047-22.779 0.1168-8.4393-8.5955-15.355-19.461-15.447-10.866-0.091-19.769 6.6759-19.889 15.115 0 0 0.088 3.5467-3.7461 9.5762-2.4337 3.8278-19.253 28.177-21.852 54.646-1.2994 13.235 1.0324 28.283 13.592 40.65 12.559 12.367 33.983 19.663 61.687 20.617 22.706 0.78221 42.1-4.5364 55.422-13.777 13.321-9.241 20.268-21.364 23.672-32.883 3.4037-11.519 3.4647-22.721 1.9082-32.201-0.7782-4.7403-1.9419-9.034-3.6387-12.984-1.6968-3.9503-2.8427-7.5209-9.2246-12.084 1.7347 1.2403-3.8154-5.9208-5.9258-12.506-2.1105-6.585-3.0742-12.402-3.0742-12.402-1.2208-7.6056-9.5054-13.333-19.373-13.393zm-453.2 39.533c-10.069 0.11064-18.405 6.1074-19.318 13.896 0 0-0.24254 1.993-0.61328 4.3086-0.32844 2.0501-0.94239 4.1757-0.75976 3.9062-0.49947 0.76645-1.1794 1.81-2.043 3.1602-1.8592 2.9069-4.3635 6.9438-6.9961 11.758-5.2652 9.628-11.171 22.319-13.602 36.238-2.4308 13.919-1.4985 29.86 10.303 43.695 11.801 13.835 33.73 22.979 63.129 25.234 29.906 2.2938 54.491-5.0516 67.75-18.863 13.259-13.812 15.223-30.474 14.205-45.721-2.0368-30.494-17.797-59.453-17.797-59.453-4.1068-7.8117-15.587-11.561-25.646-8.375-10.064 3.1902-14.891 12.114-10.781 19.93 0 0 13.39 26.49 14.926 49.484 0.76797 11.497-1.8769 21.086-6.4609 25.861-4.5841 4.7752-11.074 8.3485-32.322 6.7188-21.754-1.6685-29.82-6.574-34.191-11.699-4.372-5.1253-5.7919-13.052-4.1055-22.709 1.6864-9.6567 6.3659-20.243 10.818-28.385 2.2263-4.0709 4.3683-7.5388 6.0137-10.111 0.82269-1.2864 1.5116-2.3437 2.082-3.2207 0.57037-0.877 0.32775 0.65377 2.1504-3.8242 1.788-4.3938 1.921-6.9657 2.3828-9.8476 0.46182-2.8819 0.75-5.3125 0.75-5.3125 0.98731-8.4078-6.9893-15.845-17.814-16.609-0.55334-0.0384-1.1085-0.0586-1.6641-0.0605-0.13151-1e-3 -0.26302-1e-3 -0.39453 0zm452.58 19.357c0.01-0.0253 0.206 0.14831 0.4316 0.43554-0.3088-0.26931-0.4371-0.41568-0.4316-0.43554zm205.67 576.05-35.738 3.0664 0.01 115.12c0 43.187-41.476 80.309-96.77 80.309h-45.154c-5.9459 3e-4 -11.502 2.9581-14.822 7.8906-5.9959 8.9121-10.434 20.063-11.715 32.893-1.2809 12.83 1.3359 28.722 13.309 40.113 0.3604 0.3456 0.7351 0.676 1.1231 0.9903 2.0109 1.615 7.2714 7.9276 10.881 15.236 3.6095 7.3088 5.8907 15.744 5.8907 21.6-1e-4 15.753-12.401 34.592-27.941 40.541-5.8684 2.2464-12.405 3.5216-19.377 3.5215-26.102-2e-4 -47.326-22.939-47.326-44.062 2e-4 -4.3142 3.7368-13.96 9.1836-22.359 5.4469-8.3992 10.569-13.863 14.684-19.644 0.072-0.1027 0.143-0.2063 0.2129-0.3105 7.5613-11.113 8.0253-21.652 8.0762-33.27 0.051-11.618-0.9669-23.295-7.9063-34.613-3.2488-5.2961-9.0154-8.5244-15.228-8.5253h-308.2c-15.826 0-23.835 19.061-12.764 30.369 0.62067 0.6339 4.7578 8.0007 6.9609 16.143 2.2032 8.1419 3.3516 17.451 3.3516 21.637-4.2e-4 19.911-22.54 46.602-48.07 46.602-25.529-5e-4 -48.072-26.691-48.072-46.602 7e-5 -4.1862 1.1559-13.495 3.3594-21.637 2.2035-8.1419 6.3402-15.509 6.9609-16.143 11.074-11.311 3.0584-30.372-12.771-30.369h-26.5c-55.293 0-96.762-37.12-96.762-80.309v-50.336l-35.736 3.0664v47.27c0 65.07 59.868 115.11 130.85 115.9-0.14815 0.5351-0.39408 1.0501-0.53906 1.5859-3.0153 11.141-4.5916 21.89-4.5918 30.975 8.4e-4 42.46 36.5 82.337 83.801 82.338 47.302 6e-4 83.804-39.877 83.805-82.338 1.5e-4 -9.0847-1.5751-19.833-4.5898-30.975-0.13206-0.4879-0.35366-0.9575-0.48828-1.4453h266.18c0.5589 2.8378 1.2335 3.8876 1.2188 7.248-0.03 6.8162-2.6669 13.992-2.0684 13.529-0.6281 0.734-8.336 9.8981-15.154 20.412-7.1264 10.989-14.939 24.661-14.939 41.805 3e-4 42.858 37.146 79.791 83.053 79.791 11.335 2e-4 22.221-2.0794 32.162-5.8847 30.834-11.803 50.898-41.944 50.898-73.906 1e-4 -13.681-4.1256-26.365-9.5879-37.426-5.2575-10.647-11.457-19.653-19.588-26.476-1.7911-1.8313-2.7683-4.8262-2.2032-10.486 0.2737-2.7408 1.1317-5.784 2.1328-8.6054h34c71.718 0 132.51-50.453 132.51-116.04zm-201.43-448.45c-10.868 1e-3 -19.677 5.1475-19.674 11.494v546.74c0 6.3443 8.8093 11.487 19.674 11.488 10.868 0 19.681-5.1418 19.684-11.488v-546.74c0-6.3488-8.8113-11.496-19.684-11.494zm-435.11 59.906c-10.87-2e-3 -19.683 5.1429-19.684 11.49v481.31c2e-3 6.3465 8.8152 11.49 19.684 11.488 10.865 0 19.672-5.144 19.674-11.488v-481.31c-5.2e-4 -6.345-8.808-11.489-19.674-11.49z" color="#000000" color-rendering="auto" dominant-baseline="auto" fill="#cd00cd" image-rendering="auto" opacity="1" shape-rendering="auto" solid-color="#000000" stop-color="#000000" style="font-feature-settings:normal;font-variant-alternates:normal;font-variant-caps:normal;font-variant-east-asian:normal;font-variant-ligatures:normal;font-variant-numeric:normal;font-variant-position:normal;font-variation-settings:normal;inline-size:0;isolation:auto;mix-blend-mode:normal;shape-margin:0;shape-padding:0;text-decoration-color:#000000;text-decoration-line:none;text-decoration-style:solid;text-indent:0;text-orientation:mixed;text-transform:none;white-space:normal"/>
  </g>
  <use id="use922" transform="matrix(.74745 0 0 .74745 -2.0363 -38.138)" width="100%" height="100%" xlink:href="#g885"/>
  <use transform="matrix(.5233 -.49656 .49656 .5233 -48.922 65.586)" width="100%" height="100%" xlink:href="#use922"/>
  <use transform="rotate(-41.33 120.56 201.45)" width="100%" height="100%" xlink:href="#g885"/>
  <use transform="matrix(.43093 -.066443 .066443 .43093 -43.555 81.302)" width="100%" height="100%" xlink:href="#g885"/>
 </g>
 <defs>
  <clipPath id="G">
   <path class="B" d="M0 0h202v133.654H0z"/>
  </clipPath>
 </defs>
</svg>
