<?xml version="1.0" encoding="UTF-8"?>
<svg width="64" height="64" fill="none" version="1.1" xmlns="http://www.w3.org/2000/svg" xmlns:cc="http://creativecommons.org/ns#" xmlns:dc="http://purl.org/dc/elements/1.1/" xmlns:rdf="http://www.w3.org/1999/02/22-rdf-syntax-ns#">
 <metadata>
  <rdf:RDF>
   <cc:Work rdf:about="">
    <dc:format>image/svg+xml</dc:format>
    <dc:type rdf:resource="http://purl.org/dc/dcmitype/StillImage"/>
    <dc:title/>
   </cc:Work>
  </rdf:RDF>
 </metadata>
 <style><![CDATA[.B{fill-rule:evenodd}.C{fill:#7645d9}]]></style>
 <g>
  <path d="m43.194 10.691a1.53 1.53 0 1 1 1.421 2.611l-6.119 1.64 4.698-4.25zm5.919-0.177a5.07 5.07 0 0 0-8.291-2.445l-9.802 8.868c-1.46 1.321-0.158 3.712 1.744 3.203l12.768-3.421c2.702-0.724 4.306-3.502 3.582-6.204z" fill="#cd00cd" fill-rule="evenodd"/>
  <path d="m30.189 8.084a1.66 1.66 0 1 0-2.754 1.683l4.864 4.864zm-5.469-3.38c2.908-2.908 7.862-1.712 9.124 2.202l4.403 13.66c0.656 2.035-1.867 3.577-3.378 2.065l-10.149-10.149a5.5 5.5 0 0 1 0-7.778z" fill="#cd00cd" fill-rule="evenodd"/>
  <g fill="#ffcaff">
   <path d="m7.276 34.043a1.02 1.02 0 0 1-1.966 0l-0.796-3.032c-0.093-0.355-0.37-0.632-0.725-0.725l-3.032-0.796a1.02 1.02 0 0 1 0-1.966l3.032-0.796c0.355-0.093 0.632-0.37 0.725-0.725l0.796-3.032a1.02 1.02 0 0 1 1.966 0l0.796 3.032c0.093 0.355 0.37 0.632 0.725 0.725l3.032 0.796a1.02 1.02 0 0 1 0 1.966l-3.032 0.796c-0.355 0.093-0.632 0.37-0.725 0.725z" opacity=".6"/>
   <path d="m9.62 11.664a0.6 0.6 0 0 1-1.113 0.298l-0.911-1.596c-0.107-0.187-0.305-0.302-0.52-0.3l-1.837 9e-3a0.6 0.6 0 0 1-0.298-1.113l1.596-0.911c0.187-0.107 0.302-0.305 0.3-0.52l-9e-3 -1.838a0.6 0.6 0 0 1 1.113-0.298l0.911 1.596c0.107 0.187 0.305 0.302 0.52 0.3l1.837-9e-3a0.6 0.6 0 0 1 0.298 1.113l-1.596 0.911c-0.187 0.107-0.302 0.305-0.3 0.52z"/>
   <path d="m53.871 15.786a0.58 0.58 0 0 1 0-1.118l3.093-0.812a0.58 0.58 0 0 0 0.412-0.412l0.812-3.093a0.58 0.58 0 0 1 1.118 0l0.812 3.093a0.58 0.58 0 0 0 0.412 0.412l3.093 0.812a0.58 0.58 0 0 1 0 1.118l-3.093 0.812a0.58 0.58 0 0 0-0.412 0.412l-0.812 3.093a0.58 0.58 0 0 1-1.118 0l-0.812-3.093c-0.053-0.202-0.21-0.359-0.412-0.412z" opacity=".8"/>
  </g>
  <path d="m51.083 29.906a5.12 5.12 0 0 0-6.271-3.62l-27.2 7.288a5.12 5.12 0 0 0-3.62 6.271l4.555 17a5.12 5.12 0 0 0 6.271 3.62l27.2-7.288a5.12 5.12 0 0 0 3.62-6.271z" fill="#f0f"/>
 </g>
 <g fill="#cd00cd">
  <path class="B" d="m18.274 36.046 27.201-7.288a2.56 2.56 0 0 1 3.135 1.81l4.555 17a2.56 2.56 0 0 1-1.81 3.135l-27.2 7.288a2.56 2.56 0 0 1-3.135-1.81l-4.555-17a2.56 2.56 0 0 1 1.81-3.135zm26.538-9.761a5.12 5.12 0 0 1 6.271 3.62l4.555 17a5.12 5.12 0 0 1-3.62 6.271l-27.2 7.288a5.12 5.12 0 0 1-6.271-3.62l-4.555-17a5.12 5.12 0 0 1 3.62-6.271z"/>
  <path d="m35.23 28.853-8.036 2.153 7.206 26.891 8.036-2.153z"/>
  <path d="m54.517 42.402-2.153-8.036-37.253 9.982 2.153 8.036z"/>
 </g>
 <g class="B C" style="mix-blend-mode:normal">
  <path d="m39.926 46.324-8.065 2.161 0.331 1.236 8.065-2.161zm-10.224-5.898 8.065-2.161-0.331-1.236-8.065 2.161z" fill="#cd00cd"/>
 </g>
 <path d="m54.831 24.945a3.84 3.84 0 0 0-2.715-4.703l-34.619-9.276a3.84 3.84 0 0 0-4.703 2.715l-0.911 3.4a3.84 3.84 0 0 0 2.715 4.703l34.619 9.276a3.84 3.84 0 0 0 4.703-2.715z" fill="#f0f"/>
 <g fill="#cd00cd">
  <path class="B" d="m16.834 13.438 34.619 9.276a1.28 1.28 0 0 1 0.905 1.568l-0.911 3.4a1.28 1.28 0 0 1-1.568 0.905l-34.619-9.276a1.28 1.28 0 0 1-0.905-1.568l0.911-3.4a1.28 1.28 0 0 1 1.568-0.905zm35.281 6.803a3.84 3.84 0 0 1 2.715 4.703l-0.911 3.4a3.84 3.84 0 0 1-4.703 2.715l-34.619-9.276a3.84 3.84 0 0 1-2.715-4.703l0.911-3.4a3.84 3.84 0 0 1 4.703-2.715z"/>
  <path d="m38.824 16.68-8.036-2.153-2.899 10.818 8.037 2.153 2.899-10.818z"/>
  <path d="m38.426 18.08-8-2.24 0.32-1.44 8.136 2.257z" fill-rule="evenodd" style="mix-blend-mode:normal"/>
 </g>
</svg>
